<mxfile host="drawio-plugin" modified="2023-06-29T18:49:48.107Z" agent="5.0 (Windows NT 6.2; Win64; x64) AppleWebKit/537.36 (KHTML, like Gecko) Chrome/87.0.4280.141 Safari/537.36" etag="jQzBO2fVa9JmFQCbvCv9" version="13.7.9" type="embed"><diagram id="lMCECdiOliHJ0kIxP1SO" name="Page-1"><mxGraphModel dx="926" dy="-16020" grid="0" gridSize="10" guides="1" tooltips="1" connect="1" arrows="1" fold="1" page="0" pageScale="1" pageWidth="850" pageHeight="1100" background="#ffffff" math="0" shadow="0"><root><mxCell id="0"/><mxCell id="1" parent="0"/><mxCell id="47" style="rounded=0;sketch=1;orthogonalLoop=1;jettySize=auto;html=1;entryX=1;entryY=0;entryDx=0;entryDy=0;strokeColor=#000000;fontColor=#000000;" parent="1" source="41" target="42" edge="1"><mxGeometry relative="1" as="geometry"/></mxCell><mxCell id="48" style="edgeStyle=none;rounded=0;sketch=1;orthogonalLoop=1;jettySize=auto;html=1;entryX=0;entryY=0;entryDx=0;entryDy=0;strokeColor=#000000;fontColor=#000000;" parent="1" source="41" target="43" edge="1"><mxGeometry relative="1" as="geometry"/></mxCell><mxCell id="41" value="&lt;font style=&quot;font-size: 17px&quot;&gt;4&lt;/font&gt;" style="ellipse;whiteSpace=wrap;html=1;aspect=fixed;fillColor=#dae8fc;strokeColor=#6c8ebf;sketch=1;fontColor=#000000;fontStyle=1" parent="1" vertex="1"><mxGeometry x="198" y="16530" width="47" height="47" as="geometry"/></mxCell><mxCell id="50" style="edgeStyle=none;rounded=0;sketch=1;orthogonalLoop=1;jettySize=auto;html=1;entryX=1;entryY=0;entryDx=0;entryDy=0;strokeColor=#000000;fontColor=#000000;" parent="1" source="42" target="49" edge="1"><mxGeometry relative="1" as="geometry"/></mxCell><mxCell id="52" style="edgeStyle=none;rounded=0;sketch=1;orthogonalLoop=1;jettySize=auto;html=1;entryX=0;entryY=0;entryDx=0;entryDy=0;strokeColor=#000000;fontColor=#000000;" parent="1" source="42" target="51" edge="1"><mxGeometry relative="1" as="geometry"/></mxCell><mxCell id="42" value="&lt;font style=&quot;font-size: 17px&quot;&gt;3&lt;/font&gt;" style="ellipse;whiteSpace=wrap;html=1;aspect=fixed;fillColor=#dae8fc;strokeColor=#6c8ebf;sketch=1;fontColor=#000000;fontStyle=1" parent="1" vertex="1"><mxGeometry x="120" y="16622" width="47" height="47" as="geometry"/></mxCell><mxCell id="43" value="&lt;font style=&quot;font-size: 17px&quot;&gt;23&lt;/font&gt;" style="ellipse;whiteSpace=wrap;html=1;aspect=fixed;fillColor=#dae8fc;strokeColor=#6c8ebf;sketch=1;fontColor=#000000;fontStyle=1" parent="1" vertex="1"><mxGeometry x="258" y="16622" width="47" height="47" as="geometry"/></mxCell><mxCell id="49" value="&lt;font style=&quot;font-size: 17px&quot;&gt;12&lt;/font&gt;" style="ellipse;whiteSpace=wrap;html=1;aspect=fixed;fillColor=#dae8fc;strokeColor=#6c8ebf;sketch=1;fontColor=#000000;fontStyle=1" parent="1" vertex="1"><mxGeometry x="61" y="16702" width="47" height="47" as="geometry"/></mxCell><mxCell id="51" value="&lt;font style=&quot;font-size: 17px&quot;&gt;7&lt;/font&gt;" style="ellipse;whiteSpace=wrap;html=1;aspect=fixed;fillColor=#dae8fc;strokeColor=#6c8ebf;sketch=1;fontColor=#000000;fontStyle=1" parent="1" vertex="1"><mxGeometry x="167" y="16702" width="47" height="47" as="geometry"/></mxCell><mxCell id="53" style="rounded=0;sketch=1;orthogonalLoop=1;jettySize=auto;html=1;entryX=1;entryY=0;entryDx=0;entryDy=0;strokeColor=#000000;fontColor=#000000;" parent="1" source="55" target="58" edge="1"><mxGeometry relative="1" as="geometry"/></mxCell><mxCell id="54" style="edgeStyle=none;rounded=0;sketch=1;orthogonalLoop=1;jettySize=auto;html=1;entryX=0;entryY=0;entryDx=0;entryDy=0;strokeColor=#000000;fontColor=#000000;" parent="1" source="55" target="59" edge="1"><mxGeometry relative="1" as="geometry"/></mxCell><mxCell id="55" value="&lt;font style=&quot;font-size: 17px&quot;&gt;4&lt;/font&gt;" style="ellipse;whiteSpace=wrap;html=1;aspect=fixed;fillColor=#dae8fc;strokeColor=#6c8ebf;sketch=1;fontColor=#000000;fontStyle=1" parent="1" vertex="1"><mxGeometry x="601" y="16530" width="47" height="47" as="geometry"/></mxCell><mxCell id="56" style="edgeStyle=none;rounded=0;sketch=1;orthogonalLoop=1;jettySize=auto;html=1;entryX=1;entryY=0;entryDx=0;entryDy=0;strokeColor=#000000;fontColor=#000000;" parent="1" source="58" target="60" edge="1"><mxGeometry relative="1" as="geometry"/></mxCell><mxCell id="57" style="edgeStyle=none;rounded=0;sketch=1;orthogonalLoop=1;jettySize=auto;html=1;entryX=0;entryY=0;entryDx=0;entryDy=0;strokeColor=#000000;fontColor=#000000;" parent="1" source="58" target="61" edge="1"><mxGeometry relative="1" as="geometry"/></mxCell><mxCell id="58" value="&lt;font style=&quot;font-size: 17px&quot;&gt;3&lt;/font&gt;" style="ellipse;whiteSpace=wrap;html=1;aspect=fixed;fillColor=#dae8fc;strokeColor=#6c8ebf;sketch=1;fontColor=#000000;fontStyle=1" parent="1" vertex="1"><mxGeometry x="523" y="16622" width="47" height="47" as="geometry"/></mxCell><mxCell id="59" value="&lt;font style=&quot;font-size: 17px&quot;&gt;23&lt;/font&gt;" style="ellipse;whiteSpace=wrap;html=1;aspect=fixed;fillColor=#dae8fc;strokeColor=#6c8ebf;sketch=1;fontColor=#000000;fontStyle=1" parent="1" vertex="1"><mxGeometry x="661" y="16622" width="47" height="47" as="geometry"/></mxCell><mxCell id="60" value="&lt;font style=&quot;font-size: 17px&quot;&gt;12&lt;/font&gt;" style="ellipse;whiteSpace=wrap;html=1;aspect=fixed;fillColor=#dae8fc;strokeColor=#6c8ebf;sketch=1;fontColor=#000000;fontStyle=1" parent="1" vertex="1"><mxGeometry x="464" y="16702" width="47" height="47" as="geometry"/></mxCell><mxCell id="61" value="&lt;font style=&quot;font-size: 17px&quot;&gt;7&lt;/font&gt;" style="ellipse;whiteSpace=wrap;html=1;aspect=fixed;fillColor=#dae8fc;strokeColor=#6c8ebf;sketch=1;fontColor=#000000;fontStyle=1" parent="1" vertex="1"><mxGeometry x="570" y="16702" width="47" height="47" as="geometry"/></mxCell><mxCell id="62" value="&lt;font style=&quot;font-size: 32px&quot;&gt;Full&lt;/font&gt;" style="text;html=1;align=center;verticalAlign=middle;resizable=0;points=[];autosize=1;fontColor=#000000;" parent="1" vertex="1"><mxGeometry x="311" y="16555" width="62" height="25" as="geometry"/></mxCell><mxCell id="63" value="" style="html=1;aspect=fixed;strokeColor=none;shadow=0;align=center;verticalAlign=top;fillColor=#2D9C5E;shape=mxgraph.gcp2.check;sketch=0;fontColor=#000000;" parent="1" vertex="1"><mxGeometry x="274" y="16551.5" width="40" height="32" as="geometry"/></mxCell><mxCell id="64" value="&lt;font style=&quot;font-size: 32px&quot;&gt;Not Full&lt;/font&gt;" style="text;html=1;align=center;verticalAlign=middle;resizable=0;points=[];autosize=1;fontColor=#000000;" parent="1" vertex="1"><mxGeometry x="715" y="16558.5" width="120" height="25" as="geometry"/></mxCell><mxCell id="65" value="" style="verticalLabelPosition=bottom;verticalAlign=top;html=1;shape=mxgraph.basic.x;sketch=0;strokeColor=#CC0000;fillColor=#CC0000;" parent="1" vertex="1"><mxGeometry x="675" y="16557.5" width="42" height="27" as="geometry"/></mxCell><mxCell id="67" style="rounded=0;sketch=1;orthogonalLoop=1;jettySize=auto;html=1;entryX=1;entryY=0;entryDx=0;entryDy=0;strokeColor=#000000;fontColor=#000000;" parent="1" source="69" target="72" edge="1"><mxGeometry relative="1" as="geometry"/></mxCell><mxCell id="68" style="edgeStyle=none;rounded=0;sketch=1;orthogonalLoop=1;jettySize=auto;html=1;entryX=0;entryY=0;entryDx=0;entryDy=0;strokeColor=#000000;fontColor=#000000;" parent="1" source="69" target="73" edge="1"><mxGeometry relative="1" as="geometry"/></mxCell><mxCell id="69" value="&lt;font style=&quot;font-size: 17px&quot;&gt;4&lt;/font&gt;" style="ellipse;whiteSpace=wrap;html=1;aspect=fixed;fillColor=#dae8fc;strokeColor=#6c8ebf;sketch=1;fontColor=#000000;fontStyle=1" parent="1" vertex="1"><mxGeometry x="169" y="16859" width="47" height="47" as="geometry"/></mxCell><mxCell id="70" style="edgeStyle=none;rounded=0;sketch=1;orthogonalLoop=1;jettySize=auto;html=1;entryX=1;entryY=0;entryDx=0;entryDy=0;strokeColor=#000000;fontColor=#000000;" parent="1" source="72" target="74" edge="1"><mxGeometry relative="1" as="geometry"/></mxCell><mxCell id="71" style="edgeStyle=none;rounded=0;sketch=1;orthogonalLoop=1;jettySize=auto;html=1;entryX=0;entryY=0;entryDx=0;entryDy=0;strokeColor=#000000;fontColor=#000000;" parent="1" source="72" target="75" edge="1"><mxGeometry relative="1" as="geometry"/></mxCell><mxCell id="72" value="&lt;font style=&quot;font-size: 17px&quot;&gt;3&lt;/font&gt;" style="ellipse;whiteSpace=wrap;html=1;aspect=fixed;fillColor=#dae8fc;strokeColor=#6c8ebf;sketch=1;fontColor=#000000;fontStyle=1" parent="1" vertex="1"><mxGeometry x="91" y="16951" width="47" height="47" as="geometry"/></mxCell><mxCell id="83" style="edgeStyle=none;rounded=0;sketch=1;orthogonalLoop=1;jettySize=auto;html=1;entryX=1;entryY=0;entryDx=0;entryDy=0;strokeColor=#000000;fontColor=#000000;" parent="1" source="73" target="78" edge="1"><mxGeometry relative="1" as="geometry"/></mxCell><mxCell id="84" style="edgeStyle=none;rounded=0;sketch=1;orthogonalLoop=1;jettySize=auto;html=1;entryX=0;entryY=0;entryDx=0;entryDy=0;strokeColor=#000000;fontColor=#000000;" parent="1" source="73" target="79" edge="1"><mxGeometry relative="1" as="geometry"/></mxCell><mxCell id="73" value="&lt;font style=&quot;font-size: 17px&quot;&gt;23&lt;/font&gt;" style="ellipse;whiteSpace=wrap;html=1;aspect=fixed;fillColor=#dae8fc;strokeColor=#6c8ebf;sketch=1;fontColor=#000000;fontStyle=1" parent="1" vertex="1"><mxGeometry x="229" y="16951" width="47" height="47" as="geometry"/></mxCell><mxCell id="74" value="&lt;font style=&quot;font-size: 17px&quot;&gt;12&lt;/font&gt;" style="ellipse;whiteSpace=wrap;html=1;aspect=fixed;fillColor=#dae8fc;strokeColor=#6c8ebf;sketch=1;fontColor=#000000;fontStyle=1" parent="1" vertex="1"><mxGeometry x="32" y="17031" width="47" height="47" as="geometry"/></mxCell><mxCell id="75" value="&lt;font style=&quot;font-size: 17px&quot;&gt;7&lt;/font&gt;" style="ellipse;whiteSpace=wrap;html=1;aspect=fixed;fillColor=#dae8fc;strokeColor=#6c8ebf;sketch=1;fontColor=#000000;fontStyle=1" parent="1" vertex="1"><mxGeometry x="138" y="17031" width="47" height="47" as="geometry"/></mxCell><mxCell id="78" value="&lt;font style=&quot;font-size: 17px&quot;&gt;14&lt;/font&gt;" style="ellipse;whiteSpace=wrap;html=1;aspect=fixed;fillColor=#dae8fc;strokeColor=#6c8ebf;sketch=1;fontColor=#000000;fontStyle=1" parent="1" vertex="1"><mxGeometry x="192" y="17031" width="47" height="47" as="geometry"/></mxCell><mxCell id="79" value="&lt;font style=&quot;font-size: 17px&quot;&gt;27&lt;br&gt;&lt;/font&gt;" style="ellipse;whiteSpace=wrap;html=1;aspect=fixed;fillColor=#dae8fc;strokeColor=#6c8ebf;sketch=1;fontColor=#000000;fontStyle=1" parent="1" vertex="1"><mxGeometry x="278" y="17031" width="47" height="47" as="geometry"/></mxCell><mxCell id="85" value="&lt;font style=&quot;font-size: 32px&quot;&gt;Full&lt;/font&gt;" style="text;html=1;align=left;verticalAlign=middle;resizable=0;points=[];autosize=1;fontColor=#000000;" parent="1" vertex="1"><mxGeometry x="389" y="16883.5" width="62" height="25" as="geometry"/></mxCell><mxCell id="86" value="" style="html=1;aspect=fixed;strokeColor=none;shadow=0;align=center;verticalAlign=top;fillColor=#2D9C5E;shape=mxgraph.gcp2.check;sketch=0;fontColor=#000000;" parent="1" vertex="1"><mxGeometry x="341" y="16880" width="40" height="32" as="geometry"/></mxCell><mxCell id="88" value="&lt;font style=&quot;font-size: 32px&quot;&gt;Perfect&lt;/font&gt;" style="text;html=1;align=left;verticalAlign=middle;resizable=0;points=[];autosize=1;fontColor=#000000;" parent="1" vertex="1"><mxGeometry x="387" y="16930" width="111" height="25" as="geometry"/></mxCell><mxCell id="89" value="&lt;font style=&quot;font-size: 32px&quot;&gt;Complete&lt;/font&gt;" style="text;html=1;align=left;verticalAlign=middle;resizable=0;points=[];autosize=1;fontColor=#000000;" parent="1" vertex="1"><mxGeometry x="387" y="16976.5" width="144" height="25" as="geometry"/></mxCell><mxCell id="90" value="" style="html=1;aspect=fixed;strokeColor=none;shadow=0;align=center;verticalAlign=top;fillColor=#2D9C5E;shape=mxgraph.gcp2.check;sketch=0;fontColor=#000000;" parent="1" vertex="1"><mxGeometry x="341" y="16926.5" width="40" height="32" as="geometry"/></mxCell><mxCell id="91" value="" style="html=1;aspect=fixed;strokeColor=none;shadow=0;align=center;verticalAlign=top;fillColor=#2D9C5E;shape=mxgraph.gcp2.check;sketch=0;fontColor=#000000;" parent="1" vertex="1"><mxGeometry x="341" y="16973" width="40" height="32" as="geometry"/></mxCell><mxCell id="92" style="rounded=0;sketch=1;orthogonalLoop=1;jettySize=auto;html=1;entryX=1;entryY=0;entryDx=0;entryDy=0;strokeColor=#000000;fontColor=#000000;" parent="1" source="94" target="97" edge="1"><mxGeometry relative="1" as="geometry"/></mxCell><mxCell id="93" style="edgeStyle=none;rounded=0;sketch=1;orthogonalLoop=1;jettySize=auto;html=1;entryX=0;entryY=0;entryDx=0;entryDy=0;strokeColor=#000000;fontColor=#000000;" parent="1" source="94" target="100" edge="1"><mxGeometry relative="1" as="geometry"/></mxCell><mxCell id="94" value="&lt;font style=&quot;font-size: 17px&quot;&gt;4&lt;/font&gt;" style="ellipse;whiteSpace=wrap;html=1;aspect=fixed;fillColor=#dae8fc;strokeColor=#6c8ebf;sketch=1;fontColor=#000000;fontStyle=1" parent="1" vertex="1"><mxGeometry x="169" y="17138" width="47" height="47" as="geometry"/></mxCell><mxCell id="95" style="edgeStyle=none;rounded=0;sketch=1;orthogonalLoop=1;jettySize=auto;html=1;entryX=1;entryY=0;entryDx=0;entryDy=0;strokeColor=#000000;fontColor=#000000;" parent="1" source="97" target="101" edge="1"><mxGeometry relative="1" as="geometry"/></mxCell><mxCell id="96" style="edgeStyle=none;rounded=0;sketch=1;orthogonalLoop=1;jettySize=auto;html=1;entryX=0;entryY=0;entryDx=0;entryDy=0;strokeColor=#000000;fontColor=#000000;" parent="1" source="97" target="102" edge="1"><mxGeometry relative="1" as="geometry"/></mxCell><mxCell id="97" value="&lt;font style=&quot;font-size: 17px&quot;&gt;3&lt;/font&gt;" style="ellipse;whiteSpace=wrap;html=1;aspect=fixed;fillColor=#dae8fc;strokeColor=#6c8ebf;sketch=1;fontColor=#000000;fontStyle=1" parent="1" vertex="1"><mxGeometry x="91" y="17230" width="47" height="47" as="geometry"/></mxCell><mxCell id="98" style="edgeStyle=none;rounded=0;sketch=1;orthogonalLoop=1;jettySize=auto;html=1;entryX=1;entryY=0;entryDx=0;entryDy=0;strokeColor=#000000;fontColor=#000000;" parent="1" source="100" target="103" edge="1"><mxGeometry relative="1" as="geometry"/></mxCell><mxCell id="99" style="edgeStyle=none;rounded=0;sketch=1;orthogonalLoop=1;jettySize=auto;html=1;entryX=0;entryY=0;entryDx=0;entryDy=0;strokeColor=#000000;fontColor=#000000;" parent="1" source="100" target="104" edge="1"><mxGeometry relative="1" as="geometry"/></mxCell><mxCell id="100" value="&lt;font style=&quot;font-size: 17px&quot;&gt;23&lt;/font&gt;" style="ellipse;whiteSpace=wrap;html=1;aspect=fixed;fillColor=#dae8fc;strokeColor=#6c8ebf;sketch=1;fontColor=#000000;fontStyle=1" parent="1" vertex="1"><mxGeometry x="229" y="17230" width="47" height="47" as="geometry"/></mxCell><mxCell id="114" style="edgeStyle=none;rounded=0;sketch=1;orthogonalLoop=1;jettySize=auto;html=1;entryX=1;entryY=0;entryDx=0;entryDy=0;strokeColor=#000000;fontColor=#000000;" parent="1" source="101" target="113" edge="1"><mxGeometry relative="1" as="geometry"/></mxCell><mxCell id="101" value="&lt;font style=&quot;font-size: 17px&quot;&gt;12&lt;/font&gt;" style="ellipse;whiteSpace=wrap;html=1;aspect=fixed;fillColor=#dae8fc;strokeColor=#6c8ebf;sketch=1;fontColor=#000000;fontStyle=1" parent="1" vertex="1"><mxGeometry x="32" y="17310" width="47" height="47" as="geometry"/></mxCell><mxCell id="102" value="&lt;font style=&quot;font-size: 17px&quot;&gt;7&lt;/font&gt;" style="ellipse;whiteSpace=wrap;html=1;aspect=fixed;fillColor=#dae8fc;strokeColor=#6c8ebf;sketch=1;fontColor=#000000;fontStyle=1" parent="1" vertex="1"><mxGeometry x="138" y="17310" width="47" height="47" as="geometry"/></mxCell><mxCell id="103" value="&lt;font style=&quot;font-size: 17px&quot;&gt;14&lt;/font&gt;" style="ellipse;whiteSpace=wrap;html=1;aspect=fixed;fillColor=#dae8fc;strokeColor=#6c8ebf;sketch=1;fontColor=#000000;fontStyle=1" parent="1" vertex="1"><mxGeometry x="192" y="17310" width="47" height="47" as="geometry"/></mxCell><mxCell id="104" value="&lt;font style=&quot;font-size: 17px&quot;&gt;27&lt;br&gt;&lt;/font&gt;" style="ellipse;whiteSpace=wrap;html=1;aspect=fixed;fillColor=#dae8fc;strokeColor=#6c8ebf;sketch=1;fontColor=#000000;fontStyle=1" parent="1" vertex="1"><mxGeometry x="278" y="17310" width="47" height="47" as="geometry"/></mxCell><mxCell id="105" value="&lt;font style=&quot;font-size: 32px&quot;&gt;Full&lt;/font&gt;" style="text;html=1;align=left;verticalAlign=middle;resizable=0;points=[];autosize=1;fontColor=#000000;" parent="1" vertex="1"><mxGeometry x="389" y="17162.5" width="62" height="25" as="geometry"/></mxCell><mxCell id="107" value="&lt;font style=&quot;font-size: 32px&quot;&gt;Perfect&lt;/font&gt;" style="text;html=1;align=left;verticalAlign=middle;resizable=0;points=[];autosize=1;fontColor=#000000;" parent="1" vertex="1"><mxGeometry x="387" y="17209" width="111" height="25" as="geometry"/></mxCell><mxCell id="108" value="&lt;font style=&quot;font-size: 32px&quot;&gt;Complete&lt;/font&gt;" style="text;html=1;align=left;verticalAlign=middle;resizable=0;points=[];autosize=1;fontColor=#000000;" parent="1" vertex="1"><mxGeometry x="387" y="17255.5" width="144" height="25" as="geometry"/></mxCell><mxCell id="110" value="" style="html=1;aspect=fixed;strokeColor=none;shadow=0;align=center;verticalAlign=top;fillColor=#2D9C5E;shape=mxgraph.gcp2.check;sketch=0;fontColor=#000000;" parent="1" vertex="1"><mxGeometry x="341" y="17252" width="40" height="32" as="geometry"/></mxCell><mxCell id="111" value="" style="verticalLabelPosition=bottom;verticalAlign=top;html=1;shape=mxgraph.basic.x;sketch=0;strokeColor=#CC0000;fillColor=#CC0000;" parent="1" vertex="1"><mxGeometry x="339" y="17209" width="42" height="27" as="geometry"/></mxCell><mxCell id="112" value="" style="verticalLabelPosition=bottom;verticalAlign=top;html=1;shape=mxgraph.basic.x;sketch=0;strokeColor=#CC0000;fillColor=#CC0000;" parent="1" vertex="1"><mxGeometry x="339" y="17162.5" width="42" height="27" as="geometry"/></mxCell><mxCell id="113" value="&lt;font style=&quot;font-size: 17px&quot;&gt;8&lt;/font&gt;" style="ellipse;whiteSpace=wrap;html=1;aspect=fixed;fillColor=#dae8fc;strokeColor=#6c8ebf;sketch=1;fontColor=#000000;fontStyle=1" parent="1" vertex="1"><mxGeometry x="-20" y="17386" width="47" height="47" as="geometry"/></mxCell><mxCell id="115" style="rounded=0;sketch=1;orthogonalLoop=1;jettySize=auto;html=1;entryX=1;entryY=0;entryDx=0;entryDy=0;strokeColor=#000000;fontColor=#000000;" parent="1" source="117" target="120" edge="1"><mxGeometry relative="1" as="geometry"/></mxCell><mxCell id="116" style="edgeStyle=none;rounded=0;sketch=1;orthogonalLoop=1;jettySize=auto;html=1;entryX=0;entryY=0;entryDx=0;entryDy=0;strokeColor=#000000;fontColor=#000000;" parent="1" source="117" target="123" edge="1"><mxGeometry relative="1" as="geometry"/></mxCell><mxCell id="117" value="&lt;font style=&quot;font-size: 17px&quot;&gt;4&lt;/font&gt;" style="ellipse;whiteSpace=wrap;html=1;aspect=fixed;fillColor=#dae8fc;strokeColor=#6c8ebf;sketch=1;fontColor=#000000;fontStyle=1" parent="1" vertex="1"><mxGeometry x="166" y="17479" width="47" height="47" as="geometry"/></mxCell><mxCell id="118" style="edgeStyle=none;rounded=0;sketch=1;orthogonalLoop=1;jettySize=auto;html=1;entryX=1;entryY=0;entryDx=0;entryDy=0;strokeColor=#000000;fontColor=#000000;" parent="1" source="120" target="125" edge="1"><mxGeometry relative="1" as="geometry"/></mxCell><mxCell id="119" style="edgeStyle=none;rounded=0;sketch=1;orthogonalLoop=1;jettySize=auto;html=1;entryX=0;entryY=0;entryDx=0;entryDy=0;strokeColor=#000000;fontColor=#000000;" parent="1" source="120" target="126" edge="1"><mxGeometry relative="1" as="geometry"/></mxCell><mxCell id="120" value="&lt;font style=&quot;font-size: 17px&quot;&gt;3&lt;/font&gt;" style="ellipse;whiteSpace=wrap;html=1;aspect=fixed;fillColor=#dae8fc;strokeColor=#6c8ebf;sketch=1;fontColor=#000000;fontStyle=1" parent="1" vertex="1"><mxGeometry x="88" y="17571" width="47" height="47" as="geometry"/></mxCell><mxCell id="121" style="edgeStyle=none;rounded=0;sketch=1;orthogonalLoop=1;jettySize=auto;html=1;entryX=1;entryY=0;entryDx=0;entryDy=0;strokeColor=#000000;fontColor=#000000;" parent="1" source="123" target="127" edge="1"><mxGeometry relative="1" as="geometry"/></mxCell><mxCell id="122" style="edgeStyle=none;rounded=0;sketch=1;orthogonalLoop=1;jettySize=auto;html=1;entryX=0;entryY=0;entryDx=0;entryDy=0;strokeColor=#000000;fontColor=#000000;" parent="1" source="123" target="128" edge="1"><mxGeometry relative="1" as="geometry"/></mxCell><mxCell id="123" value="&lt;font style=&quot;font-size: 17px&quot;&gt;23&lt;/font&gt;" style="ellipse;whiteSpace=wrap;html=1;aspect=fixed;fillColor=#dae8fc;strokeColor=#6c8ebf;sketch=1;fontColor=#000000;fontStyle=1" parent="1" vertex="1"><mxGeometry x="226" y="17571" width="47" height="47" as="geometry"/></mxCell><mxCell id="124" style="edgeStyle=none;rounded=0;sketch=1;orthogonalLoop=1;jettySize=auto;html=1;entryX=1;entryY=0;entryDx=0;entryDy=0;strokeColor=#000000;fontColor=#000000;" parent="1" source="125" target="135" edge="1"><mxGeometry relative="1" as="geometry"/></mxCell><mxCell id="138" style="edgeStyle=none;rounded=0;sketch=1;orthogonalLoop=1;jettySize=auto;html=1;strokeColor=#000000;fontColor=#000000;" parent="1" source="125" target="136" edge="1"><mxGeometry relative="1" as="geometry"/></mxCell><mxCell id="125" value="&lt;font style=&quot;font-size: 17px&quot;&gt;12&lt;/font&gt;" style="ellipse;whiteSpace=wrap;html=1;aspect=fixed;fillColor=#dae8fc;strokeColor=#6c8ebf;sketch=1;fontColor=#000000;fontStyle=1" parent="1" vertex="1"><mxGeometry x="29" y="17651" width="47" height="47" as="geometry"/></mxCell><mxCell id="126" value="&lt;font style=&quot;font-size: 17px&quot;&gt;7&lt;/font&gt;" style="ellipse;whiteSpace=wrap;html=1;aspect=fixed;fillColor=#dae8fc;strokeColor=#6c8ebf;sketch=1;fontColor=#000000;fontStyle=1" parent="1" vertex="1"><mxGeometry x="135" y="17651" width="47" height="47" as="geometry"/></mxCell><mxCell id="127" value="&lt;font style=&quot;font-size: 17px&quot;&gt;14&lt;/font&gt;" style="ellipse;whiteSpace=wrap;html=1;aspect=fixed;fillColor=#dae8fc;strokeColor=#6c8ebf;sketch=1;fontColor=#000000;fontStyle=1" parent="1" vertex="1"><mxGeometry x="189" y="17651" width="47" height="47" as="geometry"/></mxCell><mxCell id="128" value="&lt;font style=&quot;font-size: 17px&quot;&gt;27&lt;br&gt;&lt;/font&gt;" style="ellipse;whiteSpace=wrap;html=1;aspect=fixed;fillColor=#dae8fc;strokeColor=#6c8ebf;sketch=1;fontColor=#000000;fontStyle=1" parent="1" vertex="1"><mxGeometry x="275" y="17651" width="47" height="47" as="geometry"/></mxCell><mxCell id="129" value="&lt;font style=&quot;font-size: 32px&quot;&gt;Full&lt;/font&gt;" style="text;html=1;align=left;verticalAlign=middle;resizable=0;points=[];autosize=1;fontColor=#000000;" parent="1" vertex="1"><mxGeometry x="386" y="17503.5" width="62" height="25" as="geometry"/></mxCell><mxCell id="130" value="&lt;font style=&quot;font-size: 32px&quot;&gt;Perfect&lt;/font&gt;" style="text;html=1;align=left;verticalAlign=middle;resizable=0;points=[];autosize=1;fontColor=#000000;" parent="1" vertex="1"><mxGeometry x="384" y="17550" width="111" height="25" as="geometry"/></mxCell><mxCell id="131" value="&lt;font style=&quot;font-size: 32px&quot;&gt;Complete&lt;/font&gt;" style="text;html=1;align=left;verticalAlign=middle;resizable=0;points=[];autosize=1;fontColor=#000000;" parent="1" vertex="1"><mxGeometry x="384" y="17596.5" width="144" height="25" as="geometry"/></mxCell><mxCell id="132" value="" style="html=1;aspect=fixed;strokeColor=none;shadow=0;align=center;verticalAlign=top;fillColor=#2D9C5E;shape=mxgraph.gcp2.check;sketch=0;fontColor=#000000;" parent="1" vertex="1"><mxGeometry x="338" y="17593" width="40" height="32" as="geometry"/></mxCell><mxCell id="133" value="" style="verticalLabelPosition=bottom;verticalAlign=top;html=1;shape=mxgraph.basic.x;sketch=0;strokeColor=#CC0000;fillColor=#CC0000;" parent="1" vertex="1"><mxGeometry x="336" y="17550" width="42" height="27" as="geometry"/></mxCell><mxCell id="135" value="&lt;font style=&quot;font-size: 17px&quot;&gt;8&lt;/font&gt;" style="ellipse;whiteSpace=wrap;html=1;aspect=fixed;fillColor=#dae8fc;strokeColor=#6c8ebf;sketch=1;fontColor=#000000;fontStyle=1" parent="1" vertex="1"><mxGeometry x="-23" y="17727" width="47" height="47" as="geometry"/></mxCell><mxCell id="136" value="&lt;font style=&quot;font-size: 17px&quot;&gt;17&lt;/font&gt;" style="ellipse;whiteSpace=wrap;html=1;aspect=fixed;fillColor=#dae8fc;strokeColor=#6c8ebf;sketch=1;fontColor=#000000;fontStyle=1" parent="1" vertex="1"><mxGeometry x="61" y="17731" width="47" height="47" as="geometry"/></mxCell><mxCell id="137" value="" style="html=1;aspect=fixed;strokeColor=none;shadow=0;align=center;verticalAlign=top;fillColor=#2D9C5E;shape=mxgraph.gcp2.check;sketch=0;fontColor=#000000;" parent="1" vertex="1"><mxGeometry x="338" y="17500" width="40" height="32" as="geometry"/></mxCell><mxCell id="139" style="rounded=0;sketch=1;orthogonalLoop=1;jettySize=auto;html=1;entryX=1;entryY=0;entryDx=0;entryDy=0;strokeColor=#000000;fontColor=#000000;" parent="1" source="141" target="144" edge="1"><mxGeometry relative="1" as="geometry"/></mxCell><mxCell id="140" style="edgeStyle=none;rounded=0;sketch=1;orthogonalLoop=1;jettySize=auto;html=1;entryX=0;entryY=0;entryDx=0;entryDy=0;strokeColor=#000000;fontColor=#000000;" parent="1" source="141" target="147" edge="1"><mxGeometry relative="1" as="geometry"/></mxCell><mxCell id="141" value="&lt;font style=&quot;font-size: 17px&quot;&gt;4&lt;/font&gt;" style="ellipse;whiteSpace=wrap;html=1;aspect=fixed;fillColor=#dae8fc;strokeColor=#6c8ebf;sketch=1;fontColor=#000000;fontStyle=1" parent="1" vertex="1"><mxGeometry x="153" y="17833" width="47" height="47" as="geometry"/></mxCell><mxCell id="142" style="edgeStyle=none;rounded=0;sketch=1;orthogonalLoop=1;jettySize=auto;html=1;entryX=1;entryY=0;entryDx=0;entryDy=0;strokeColor=#000000;fontColor=#000000;" parent="1" source="144" target="150" edge="1"><mxGeometry relative="1" as="geometry"/></mxCell><mxCell id="143" style="edgeStyle=none;rounded=0;sketch=1;orthogonalLoop=1;jettySize=auto;html=1;entryX=0;entryY=0;entryDx=0;entryDy=0;strokeColor=#000000;fontColor=#000000;" parent="1" source="144" target="151" edge="1"><mxGeometry relative="1" as="geometry"/></mxCell><mxCell id="144" value="&lt;font style=&quot;font-size: 17px&quot;&gt;3&lt;/font&gt;" style="ellipse;whiteSpace=wrap;html=1;aspect=fixed;fillColor=#dae8fc;strokeColor=#6c8ebf;sketch=1;fontColor=#000000;fontStyle=1" parent="1" vertex="1"><mxGeometry x="66" y="17925" width="47" height="47" as="geometry"/></mxCell><mxCell id="146" style="edgeStyle=none;rounded=0;sketch=1;orthogonalLoop=1;jettySize=auto;html=1;entryX=0;entryY=0;entryDx=0;entryDy=0;strokeColor=#000000;fontColor=#000000;" parent="1" source="147" target="153" edge="1"><mxGeometry relative="1" as="geometry"/></mxCell><mxCell id="175" style="edgeStyle=none;rounded=0;sketch=1;orthogonalLoop=1;jettySize=auto;html=1;entryX=0.5;entryY=0;entryDx=0;entryDy=0;strokeColor=#000000;fontColor=#000000;" parent="1" source="147" target="152" edge="1"><mxGeometry relative="1" as="geometry"/></mxCell><mxCell id="147" value="&lt;font style=&quot;font-size: 17px&quot;&gt;23&lt;/font&gt;" style="ellipse;whiteSpace=wrap;html=1;aspect=fixed;fillColor=#dae8fc;strokeColor=#6c8ebf;sketch=1;fontColor=#000000;fontStyle=1" parent="1" vertex="1"><mxGeometry x="273" y="17925" width="47" height="47" as="geometry"/></mxCell><mxCell id="148" style="edgeStyle=none;rounded=0;sketch=1;orthogonalLoop=1;jettySize=auto;html=1;entryX=1;entryY=0;entryDx=0;entryDy=0;strokeColor=#000000;fontColor=#000000;" parent="1" source="150" target="159" edge="1"><mxGeometry relative="1" as="geometry"/></mxCell><mxCell id="149" style="edgeStyle=none;rounded=0;sketch=1;orthogonalLoop=1;jettySize=auto;html=1;strokeColor=#000000;fontColor=#000000;" parent="1" source="150" target="160" edge="1"><mxGeometry relative="1" as="geometry"/></mxCell><mxCell id="150" value="&lt;font style=&quot;font-size: 17px&quot;&gt;12&lt;/font&gt;" style="ellipse;whiteSpace=wrap;html=1;aspect=fixed;fillColor=#dae8fc;strokeColor=#6c8ebf;sketch=1;fontColor=#000000;fontStyle=1" parent="1" vertex="1"><mxGeometry x="-27" y="18011" width="47" height="47" as="geometry"/></mxCell><mxCell id="169" style="edgeStyle=none;rounded=0;sketch=1;orthogonalLoop=1;jettySize=auto;html=1;entryX=0.5;entryY=0;entryDx=0;entryDy=0;strokeColor=#000000;fontColor=#000000;" parent="1" source="151" target="163" edge="1"><mxGeometry relative="1" as="geometry"/></mxCell><mxCell id="170" style="edgeStyle=none;rounded=0;sketch=1;orthogonalLoop=1;jettySize=auto;html=1;entryX=0;entryY=0;entryDx=0;entryDy=0;strokeColor=#000000;fontColor=#000000;" parent="1" source="151" target="164" edge="1"><mxGeometry relative="1" as="geometry"/></mxCell><mxCell id="151" value="&lt;font style=&quot;font-size: 17px&quot;&gt;7&lt;/font&gt;" style="ellipse;whiteSpace=wrap;html=1;aspect=fixed;fillColor=#dae8fc;strokeColor=#6c8ebf;sketch=1;fontColor=#000000;fontStyle=1" parent="1" vertex="1"><mxGeometry x="108" y="18008" width="47" height="47" as="geometry"/></mxCell><mxCell id="171" style="edgeStyle=none;rounded=0;sketch=1;orthogonalLoop=1;jettySize=auto;html=1;entryX=1;entryY=0;entryDx=0;entryDy=0;strokeColor=#000000;fontColor=#000000;" parent="1" source="152" target="165" edge="1"><mxGeometry relative="1" as="geometry"/></mxCell><mxCell id="172" style="edgeStyle=none;rounded=0;sketch=1;orthogonalLoop=1;jettySize=auto;html=1;entryX=0;entryY=0;entryDx=0;entryDy=0;strokeColor=#000000;fontColor=#000000;" parent="1" source="152" target="166" edge="1"><mxGeometry relative="1" as="geometry"/></mxCell><mxCell id="152" value="&lt;font style=&quot;font-size: 17px&quot;&gt;14&lt;/font&gt;" style="ellipse;whiteSpace=wrap;html=1;aspect=fixed;fillColor=#dae8fc;strokeColor=#6c8ebf;sketch=1;fontColor=#000000;fontStyle=1" parent="1" vertex="1"><mxGeometry x="236" y="18008" width="47" height="47" as="geometry"/></mxCell><mxCell id="173" style="edgeStyle=none;rounded=0;sketch=1;orthogonalLoop=1;jettySize=auto;html=1;strokeColor=#000000;fontColor=#000000;" parent="1" source="153" target="167" edge="1"><mxGeometry relative="1" as="geometry"/></mxCell><mxCell id="174" style="edgeStyle=none;rounded=0;sketch=1;orthogonalLoop=1;jettySize=auto;html=1;entryX=0.5;entryY=0;entryDx=0;entryDy=0;strokeColor=#000000;fontColor=#000000;" parent="1" source="153" target="168" edge="1"><mxGeometry relative="1" as="geometry"/></mxCell><mxCell id="153" value="&lt;font style=&quot;font-size: 17px&quot;&gt;27&lt;br&gt;&lt;/font&gt;" style="ellipse;whiteSpace=wrap;html=1;aspect=fixed;fillColor=#dae8fc;strokeColor=#6c8ebf;sketch=1;fontColor=#000000;fontStyle=1" parent="1" vertex="1"><mxGeometry x="362" y="18011" width="47" height="47" as="geometry"/></mxCell><mxCell id="154" value="&lt;font style=&quot;font-size: 32px&quot;&gt;Full&lt;/font&gt;" style="text;html=1;align=left;verticalAlign=middle;resizable=0;points=[];autosize=1;fontColor=#000000;" parent="1" vertex="1"><mxGeometry x="373" y="17857.5" width="62" height="25" as="geometry"/></mxCell><mxCell id="155" value="&lt;font style=&quot;font-size: 32px&quot;&gt;Perfect&lt;/font&gt;" style="text;html=1;align=left;verticalAlign=middle;resizable=0;points=[];autosize=1;fontColor=#000000;" parent="1" vertex="1"><mxGeometry x="371" y="17904" width="111" height="25" as="geometry"/></mxCell><mxCell id="156" value="&lt;font style=&quot;font-size: 32px&quot;&gt;Complete&lt;/font&gt;" style="text;html=1;align=left;verticalAlign=middle;resizable=0;points=[];autosize=1;fontColor=#000000;" parent="1" vertex="1"><mxGeometry x="371" y="17950.5" width="144" height="25" as="geometry"/></mxCell><mxCell id="157" value="" style="html=1;aspect=fixed;strokeColor=none;shadow=0;align=center;verticalAlign=top;fillColor=#2D9C5E;shape=mxgraph.gcp2.check;sketch=0;fontColor=#000000;" parent="1" vertex="1"><mxGeometry x="325" y="17947" width="40" height="32" as="geometry"/></mxCell><mxCell id="159" value="&lt;font style=&quot;font-size: 17px&quot;&gt;8&lt;/font&gt;" style="ellipse;whiteSpace=wrap;html=1;aspect=fixed;fillColor=#dae8fc;strokeColor=#6c8ebf;sketch=1;fontColor=#000000;fontStyle=1" parent="1" vertex="1"><mxGeometry x="-79" y="18081" width="47" height="47" as="geometry"/></mxCell><mxCell id="160" value="&lt;font style=&quot;font-size: 17px&quot;&gt;17&lt;/font&gt;" style="ellipse;whiteSpace=wrap;html=1;aspect=fixed;fillColor=#dae8fc;strokeColor=#6c8ebf;sketch=1;fontColor=#000000;fontStyle=1" parent="1" vertex="1"><mxGeometry x="11" y="18081" width="47" height="47" as="geometry"/></mxCell><mxCell id="161" value="" style="html=1;aspect=fixed;strokeColor=none;shadow=0;align=center;verticalAlign=top;fillColor=#2D9C5E;shape=mxgraph.gcp2.check;sketch=0;fontColor=#000000;" parent="1" vertex="1"><mxGeometry x="325" y="17854" width="40" height="32" as="geometry"/></mxCell><mxCell id="162" value="" style="html=1;aspect=fixed;strokeColor=none;shadow=0;align=center;verticalAlign=top;fillColor=#2D9C5E;shape=mxgraph.gcp2.check;sketch=0;fontColor=#000000;" parent="1" vertex="1"><mxGeometry x="322" y="17900.5" width="40" height="32" as="geometry"/></mxCell><mxCell id="163" value="&lt;font style=&quot;font-size: 17px&quot;&gt;47&lt;/font&gt;" style="ellipse;whiteSpace=wrap;html=1;aspect=fixed;fillColor=#dae8fc;strokeColor=#6c8ebf;sketch=1;fontColor=#000000;fontStyle=1" parent="1" vertex="1"><mxGeometry x="75" y="18081" width="47" height="47" as="geometry"/></mxCell><mxCell id="164" value="&lt;font style=&quot;font-size: 17px&quot;&gt;2&lt;/font&gt;" style="ellipse;whiteSpace=wrap;html=1;aspect=fixed;fillColor=#dae8fc;strokeColor=#6c8ebf;sketch=1;fontColor=#000000;fontStyle=1" parent="1" vertex="1"><mxGeometry x="138" y="18081" width="47" height="47" as="geometry"/></mxCell><mxCell id="165" value="&lt;font style=&quot;font-size: 17px&quot;&gt;73&lt;/font&gt;" style="ellipse;whiteSpace=wrap;html=1;aspect=fixed;fillColor=#dae8fc;strokeColor=#6c8ebf;sketch=1;fontColor=#000000;fontStyle=1" parent="1" vertex="1"><mxGeometry x="198" y="18081" width="47" height="47" as="geometry"/></mxCell><mxCell id="166" value="&lt;font style=&quot;font-size: 17px&quot;&gt;5&lt;/font&gt;" style="ellipse;whiteSpace=wrap;html=1;aspect=fixed;fillColor=#dae8fc;strokeColor=#6c8ebf;sketch=1;fontColor=#000000;fontStyle=1" parent="1" vertex="1"><mxGeometry x="275" y="18081" width="47" height="47" as="geometry"/></mxCell><mxCell id="167" value="&lt;font style=&quot;font-size: 17px&quot;&gt;16&lt;/font&gt;" style="ellipse;whiteSpace=wrap;html=1;aspect=fixed;fillColor=#dae8fc;strokeColor=#6c8ebf;sketch=1;fontColor=#000000;fontStyle=1" parent="1" vertex="1"><mxGeometry x="331" y="18081" width="47" height="47" as="geometry"/></mxCell><mxCell id="168" value="&lt;span style=&quot;font-size: 17px&quot;&gt;44&lt;/span&gt;" style="ellipse;whiteSpace=wrap;html=1;aspect=fixed;fillColor=#dae8fc;strokeColor=#6c8ebf;sketch=1;fontColor=#000000;fontStyle=1" parent="1" vertex="1"><mxGeometry x="409" y="18074" width="47" height="47" as="geometry"/></mxCell><mxCell id="177" style="rounded=0;sketch=1;orthogonalLoop=1;jettySize=auto;html=1;entryX=1;entryY=0;entryDx=0;entryDy=0;strokeColor=#000000;fontColor=#000000;" parent="1" source="179" target="180" edge="1"><mxGeometry relative="1" as="geometry"/></mxCell><mxCell id="178" style="edgeStyle=none;rounded=0;sketch=1;orthogonalLoop=1;jettySize=auto;html=1;entryX=0;entryY=0;entryDx=0;entryDy=0;strokeColor=#000000;fontColor=#000000;" parent="1" source="179" target="181" edge="1"><mxGeometry relative="1" as="geometry"/></mxCell><mxCell id="179" value="&lt;font style=&quot;font-size: 17px&quot;&gt;4&lt;/font&gt;" style="ellipse;whiteSpace=wrap;html=1;aspect=fixed;fillColor=#dae8fc;strokeColor=#6c8ebf;sketch=1;fontColor=#000000;fontStyle=1" parent="1" vertex="1"><mxGeometry x="136" y="18260" width="47" height="47" as="geometry"/></mxCell><mxCell id="180" value="&lt;font style=&quot;font-size: 17px&quot;&gt;3&lt;/font&gt;" style="ellipse;whiteSpace=wrap;html=1;aspect=fixed;fillColor=#ffe6cc;strokeColor=#d79b00;sketch=1;fontStyle=1;fontColor=#000000;" parent="1" vertex="1"><mxGeometry x="58" y="18352" width="47" height="47" as="geometry"/></mxCell><mxCell id="181" value="&lt;font style=&quot;font-size: 17px&quot;&gt;23&lt;/font&gt;" style="ellipse;whiteSpace=wrap;html=1;aspect=fixed;fillColor=#ffe6cc;strokeColor=#d79b00;sketch=1;fontStyle=1;fontColor=#000000;" parent="1" vertex="1"><mxGeometry x="196" y="18352" width="47" height="47" as="geometry"/></mxCell><mxCell id="182" value="&lt;font style=&quot;font-size: 32px&quot;&gt;Parent&lt;/font&gt;" style="text;html=1;align=center;verticalAlign=middle;resizable=0;points=[];autosize=1;fontColor=#000000;" parent="1" vertex="1"><mxGeometry x="276" y="18265" width="103" height="25" as="geometry"/></mxCell><mxCell id="184" value="&lt;font style=&quot;font-size: 32px&quot;&gt;Child&lt;/font&gt;" style="text;html=1;align=center;verticalAlign=middle;resizable=0;points=[];autosize=1;fontColor=#000000;" parent="1" vertex="1"><mxGeometry x="327" y="18363" width="82" height="25" as="geometry"/></mxCell><mxCell id="185" value="" style="shape=singleArrow;direction=west;whiteSpace=wrap;html=1;sketch=0;strokeColor=#d79b00;fillColor=#ffe6cc;align=left;" parent="1" vertex="1"><mxGeometry x="265.5" y="18363" width="57" height="24.5" as="geometry"/></mxCell><mxCell id="186" value="" style="shape=singleArrow;direction=west;whiteSpace=wrap;html=1;sketch=0;strokeColor=#6c8ebf;fillColor=#dae8fc;align=left;" parent="1" vertex="1"><mxGeometry x="208.5" y="18268" width="57" height="24.5" as="geometry"/></mxCell><mxCell id="187" value="&lt;font style=&quot;font-size: 32px&quot;&gt;Child&lt;/font&gt;" style="text;html=1;align=center;verticalAlign=middle;resizable=0;points=[];autosize=1;fontColor=#000000;" parent="1" vertex="1"><mxGeometry x="-105" y="18363" width="82" height="25" as="geometry"/></mxCell><mxCell id="188" value="" style="shape=singleArrow;direction=west;whiteSpace=wrap;html=1;sketch=0;strokeColor=#d79b00;fillColor=#ffe6cc;align=left;rotation=-180;" parent="1" vertex="1"><mxGeometry x="-13" y="18363.5" width="57" height="24.5" as="geometry"/></mxCell><mxCell id="190" value="" style="ellipse;whiteSpace=wrap;html=1;sketch=1;fontColor=#000000;align=left;fillColor=none;strokeColor=#A680B8;" parent="1" vertex="1"><mxGeometry x="49" y="18332" width="206" height="87" as="geometry"/></mxCell><mxCell id="191" value="&lt;font style=&quot;font-size: 32px&quot;&gt;Siblings&lt;/font&gt;" style="text;html=1;strokeColor=#9673a6;fillColor=#e1d5e7;align=center;verticalAlign=middle;whiteSpace=wrap;rounded=0;sketch=1;fontColor=#000000;fontStyle=1" parent="1" vertex="1"><mxGeometry x="76" y="18422" width="156" height="41" as="geometry"/></mxCell><mxCell id="192" style="rounded=0;sketch=1;orthogonalLoop=1;jettySize=auto;html=1;entryX=1;entryY=0;entryDx=0;entryDy=0;strokeColor=#000000;fontColor=#000000;" parent="1" source="194" target="195" edge="1"><mxGeometry relative="1" as="geometry"/></mxCell><mxCell id="193" style="edgeStyle=none;rounded=0;sketch=1;orthogonalLoop=1;jettySize=auto;html=1;entryX=0;entryY=0;entryDx=0;entryDy=0;strokeColor=#000000;fontColor=#000000;" parent="1" source="194" target="196" edge="1"><mxGeometry relative="1" as="geometry"/></mxCell><mxCell id="194" value="&lt;font style=&quot;font-size: 17px&quot;&gt;4&lt;/font&gt;" style="ellipse;whiteSpace=wrap;html=1;aspect=fixed;fillColor=#dae8fc;strokeColor=#6c8ebf;sketch=1;fontColor=#000000;fontStyle=1" parent="1" vertex="1"><mxGeometry x="122" y="18533" width="47" height="47" as="geometry"/></mxCell><mxCell id="209" style="edgeStyle=none;rounded=0;sketch=1;orthogonalLoop=1;jettySize=auto;html=1;entryX=1;entryY=0;entryDx=0;entryDy=0;strokeColor=#000000;fontColor=#000000;" parent="1" source="195" edge="1"><mxGeometry relative="1" as="geometry"><mxPoint x="22.117009357888264" y="18715.882990642112" as="targetPoint"/></mxGeometry></mxCell><mxCell id="210" style="edgeStyle=none;rounded=0;sketch=1;orthogonalLoop=1;jettySize=auto;html=1;entryX=0;entryY=0;entryDx=0;entryDy=0;strokeColor=#000000;fontColor=#000000;" parent="1" source="195" edge="1"><mxGeometry relative="1" as="geometry"><mxPoint x="81.88299064211196" y="18715.882990642112" as="targetPoint"/></mxGeometry></mxCell><mxCell id="195" value="&lt;font style=&quot;font-size: 17px&quot;&gt;3&lt;/font&gt;" style="ellipse;whiteSpace=wrap;html=1;aspect=fixed;fillColor=#dae8fc;strokeColor=#6c8ebf;sketch=1;fontStyle=1;fontColor=#000000;" parent="1" vertex="1"><mxGeometry x="44" y="18625" width="47" height="47" as="geometry"/></mxCell><mxCell id="211" style="edgeStyle=none;rounded=0;sketch=1;orthogonalLoop=1;jettySize=auto;html=1;entryX=1;entryY=0;entryDx=0;entryDy=0;strokeColor=#000000;fontColor=#000000;" parent="1" source="196" edge="1"><mxGeometry relative="1" as="geometry"><mxPoint x="182.1170093578819" y="18715.88299064212" as="targetPoint"/></mxGeometry></mxCell><mxCell id="212" style="edgeStyle=none;rounded=0;sketch=1;orthogonalLoop=1;jettySize=auto;html=1;entryX=0;entryY=0;entryDx=0;entryDy=0;strokeColor=#000000;fontColor=#000000;" parent="1" source="196" edge="1"><mxGeometry relative="1" as="geometry"><mxPoint x="234.8829906421115" y="18715.882990642112" as="targetPoint"/></mxGeometry></mxCell><mxCell id="196" value="&lt;font style=&quot;font-size: 17px&quot;&gt;23&lt;/font&gt;" style="ellipse;whiteSpace=wrap;html=1;aspect=fixed;fillColor=#dae8fc;strokeColor=#6c8ebf;sketch=1;fontStyle=1;fontColor=#000000;" parent="1" vertex="1"><mxGeometry x="182" y="18625" width="47" height="47" as="geometry"/></mxCell><mxCell id="219" value="" style="shape=mxgraph.signs.nature.maple_leaf;html=1;pointerEvents=1;fillColor=#d5e8d4;strokeColor=#82b366;verticalLabelPosition=bottom;verticalAlign=top;align=center;sketch=1;" parent="1" vertex="1"><mxGeometry x="-23" y="18711" width="67" height="69" as="geometry"/></mxCell><mxCell id="220" value="&lt;font style=&quot;font-size: 17px&quot;&gt;&lt;b&gt;12&lt;/b&gt;&lt;/font&gt;" style="text;html=1;strokeColor=none;fillColor=none;align=center;verticalAlign=middle;whiteSpace=wrap;rounded=0;sketch=1;fontColor=#000000;strokeWidth=17;" parent="1" vertex="1"><mxGeometry x="-8" y="18735.5" width="40" height="20" as="geometry"/></mxCell><mxCell id="221" value="" style="shape=mxgraph.signs.nature.maple_leaf;html=1;pointerEvents=1;fillColor=#d5e8d4;strokeColor=#82b366;verticalLabelPosition=bottom;verticalAlign=top;align=center;sketch=1;" parent="1" vertex="1"><mxGeometry x="59" y="18714" width="67" height="69" as="geometry"/></mxCell><mxCell id="222" value="" style="shape=mxgraph.signs.nature.maple_leaf;html=1;pointerEvents=1;fillColor=#d5e8d4;strokeColor=#82b366;verticalLabelPosition=bottom;verticalAlign=top;align=center;sketch=1;" parent="1" vertex="1"><mxGeometry x="136" y="18705" width="67" height="69" as="geometry"/></mxCell><mxCell id="223" value="" style="shape=mxgraph.signs.nature.maple_leaf;html=1;pointerEvents=1;fillColor=#d5e8d4;strokeColor=#82b366;verticalLabelPosition=bottom;verticalAlign=top;align=center;sketch=1;" parent="1" vertex="1"><mxGeometry x="219" y="18705" width="67" height="69" as="geometry"/></mxCell><mxCell id="224" value="&lt;font style=&quot;font-size: 17px&quot;&gt;&lt;b&gt;17&lt;/b&gt;&lt;/font&gt;" style="text;html=1;strokeColor=none;fillColor=none;align=center;verticalAlign=middle;whiteSpace=wrap;rounded=0;sketch=1;fontColor=#000000;strokeWidth=17;" parent="1" vertex="1"><mxGeometry x="73" y="18735.5" width="40" height="20" as="geometry"/></mxCell><mxCell id="225" value="&lt;font style=&quot;font-size: 17px&quot;&gt;&lt;b&gt;14&lt;/b&gt;&lt;/font&gt;" style="text;html=1;strokeColor=none;fillColor=none;align=center;verticalAlign=middle;whiteSpace=wrap;rounded=0;sketch=1;fontColor=#000000;strokeWidth=17;" parent="1" vertex="1"><mxGeometry x="152" y="18729.5" width="40" height="20" as="geometry"/></mxCell><mxCell id="226" value="&lt;font style=&quot;font-size: 17px&quot;&gt;&lt;b&gt;27&lt;/b&gt;&lt;/font&gt;" style="text;html=1;strokeColor=none;fillColor=none;align=center;verticalAlign=middle;whiteSpace=wrap;rounded=0;sketch=1;fontColor=#000000;strokeWidth=17;" parent="1" vertex="1"><mxGeometry x="233" y="18729.5" width="40" height="20" as="geometry"/></mxCell><mxCell id="231" style="edgeStyle=none;rounded=0;sketch=1;orthogonalLoop=1;jettySize=auto;html=1;strokeColor=#050505;fontColor=#050505;entryX=0;entryY=0;entryDx=0;entryDy=0;" edge="1" parent="1" source="227" target="233"><mxGeometry relative="1" as="geometry"><mxPoint x="65.89348878496548" y="18939.339810738013" as="targetPoint"/></mxGeometry></mxCell><mxCell id="227" value="&lt;font style=&quot;font-size: 17px&quot;&gt;47&lt;/font&gt;" style="ellipse;whiteSpace=wrap;html=1;aspect=fixed;fillColor=#dae8fc;strokeColor=#6c8ebf;sketch=1;fontColor=#000000;fontStyle=1" vertex="1" parent="1"><mxGeometry x="7" y="18866" width="47" height="47" as="geometry"/></mxCell><mxCell id="232" value="&lt;font style=&quot;font-size: 17px&quot;&gt;52&lt;/font&gt;" style="ellipse;whiteSpace=wrap;html=1;aspect=fixed;fillColor=#ffe6cc;strokeColor=#d79b00;sketch=1;fontStyle=1;fontColor=#050505;" vertex="1" parent="1"><mxGeometry x="2" y="19010" width="47" height="47" as="geometry"/></mxCell><mxCell id="234" style="edgeStyle=none;rounded=0;sketch=1;orthogonalLoop=1;jettySize=auto;html=1;entryX=1;entryY=0;entryDx=0;entryDy=0;strokeColor=#050505;fontColor=#050505;" edge="1" parent="1" source="233" target="232"><mxGeometry relative="1" as="geometry"/></mxCell><mxCell id="233" value="&lt;font style=&quot;font-size: 17px&quot;&gt;76&lt;/font&gt;" style="ellipse;whiteSpace=wrap;html=1;aspect=fixed;fillColor=#dae8fc;strokeColor=#6c8ebf;sketch=1;fontColor=#000000;fontStyle=1" vertex="1" parent="1"><mxGeometry x="69.5" y="18930" width="47" height="47" as="geometry"/></mxCell><mxCell id="241" style="edgeStyle=none;rounded=0;sketch=1;orthogonalLoop=1;jettySize=auto;html=1;entryX=1;entryY=0;entryDx=0;entryDy=0;strokeColor=#050505;fontColor=#050505;" edge="1" parent="1" source="242" target="246"><mxGeometry relative="1" as="geometry"/></mxCell><mxCell id="242" value="&lt;font style=&quot;font-size: 17px&quot;&gt;47&lt;/font&gt;" style="ellipse;whiteSpace=wrap;html=1;aspect=fixed;fillColor=#dae8fc;strokeColor=#6c8ebf;sketch=1;fontColor=#000000;fontStyle=1" vertex="1" parent="1"><mxGeometry x="20.5" y="19128" width="47" height="47" as="geometry"/></mxCell><mxCell id="246" value="&lt;font style=&quot;font-size: 17px&quot;&gt;21&lt;/font&gt;" style="ellipse;whiteSpace=wrap;html=1;aspect=fixed;fillColor=#ffe6cc;strokeColor=#d79b00;sketch=1;fontStyle=1;fontColor=#050505;" vertex="1" parent="1"><mxGeometry x="-41.5" y="19192" width="47" height="47" as="geometry"/></mxCell><mxCell id="249" value="Add 21 and 82:" style="text;html=1;align=left;verticalAlign=middle;resizable=0;points=[];autosize=1;fontColor=#050505;" vertex="1" parent="1"><mxGeometry x="-68" y="19102" width="92" height="18" as="geometry"/></mxCell><mxCell id="250" value="Add 52:" style="text;html=1;align=center;verticalAlign=middle;resizable=0;points=[];autosize=1;fontColor=#050505;" vertex="1" parent="1"><mxGeometry x="-59" y="18821" width="51" height="18" as="geometry"/></mxCell><mxCell id="251" value="Add 18:" style="text;html=1;align=left;verticalAlign=middle;resizable=0;points=[];autosize=1;fontColor=#050505;" vertex="1" parent="1"><mxGeometry x="-68" y="19370" width="51" height="18" as="geometry"/></mxCell><mxCell id="252" style="edgeStyle=none;rounded=0;sketch=1;orthogonalLoop=1;jettySize=auto;html=1;strokeColor=#050505;fontColor=#050505;entryX=0;entryY=0;entryDx=0;entryDy=0;" edge="1" source="254" target="257" parent="1"><mxGeometry relative="1" as="geometry"><mxPoint x="72.39348878496548" y="19469.339810738013" as="targetPoint"/></mxGeometry></mxCell><mxCell id="253" style="edgeStyle=none;rounded=0;sketch=1;orthogonalLoop=1;jettySize=auto;html=1;entryX=1;entryY=0;entryDx=0;entryDy=0;strokeColor=#050505;fontColor=#050505;" edge="1" source="254" target="258" parent="1"><mxGeometry relative="1" as="geometry"/></mxCell><mxCell id="254" value="&lt;font style=&quot;font-size: 17px&quot;&gt;47&lt;/font&gt;" style="ellipse;whiteSpace=wrap;html=1;aspect=fixed;fillColor=#dae8fc;strokeColor=#6c8ebf;sketch=1;fontColor=#000000;fontStyle=1" vertex="1" parent="1"><mxGeometry x="13.5" y="19396" width="47" height="47" as="geometry"/></mxCell><mxCell id="255" style="edgeStyle=none;rounded=0;sketch=1;orthogonalLoop=1;jettySize=auto;html=1;entryX=1;entryY=0;entryDx=0;entryDy=0;strokeColor=#050505;fontColor=#050505;" edge="1" source="257" target="259" parent="1"><mxGeometry relative="1" as="geometry"><mxPoint x="48.61700935788383" y="19546.882990642116" as="targetPoint"/></mxGeometry></mxCell><mxCell id="256" style="edgeStyle=none;rounded=0;sketch=1;orthogonalLoop=1;jettySize=auto;html=1;entryX=0;entryY=0;entryDx=0;entryDy=0;strokeColor=#050505;fontColor=#050505;" edge="1" source="257" target="260" parent="1"><mxGeometry relative="1" as="geometry"/></mxCell><mxCell id="257" value="&lt;font style=&quot;font-size: 17px&quot;&gt;76&lt;/font&gt;" style="ellipse;whiteSpace=wrap;html=1;aspect=fixed;fillColor=#dae8fc;strokeColor=#6c8ebf;sketch=1;fontColor=#000000;fontStyle=1" vertex="1" parent="1"><mxGeometry x="76" y="19460" width="47" height="47" as="geometry"/></mxCell><mxCell id="263" style="edgeStyle=none;rounded=0;sketch=1;orthogonalLoop=1;jettySize=auto;html=1;entryX=1;entryY=0;entryDx=0;entryDy=0;strokeColor=#050505;fontColor=#050505;" edge="1" parent="1" source="258" target="261"><mxGeometry relative="1" as="geometry"/></mxCell><mxCell id="265" style="edgeStyle=none;rounded=0;sketch=1;orthogonalLoop=1;jettySize=auto;html=1;entryX=0;entryY=0;entryDx=0;entryDy=0;strokeColor=#050505;fontColor=#050505;" edge="1" parent="1" source="258" target="264"><mxGeometry relative="1" as="geometry"/></mxCell><mxCell id="258" value="&lt;font style=&quot;font-size: 17px&quot;&gt;21&lt;/font&gt;" style="ellipse;whiteSpace=wrap;html=1;aspect=fixed;fillColor=#dae8fc;strokeColor=#6c8ebf;sketch=1;fontStyle=1;fontColor=#050505;" vertex="1" parent="1"><mxGeometry x="-48.5" y="19460" width="47" height="47" as="geometry"/></mxCell><mxCell id="259" value="&lt;font style=&quot;font-size: 17px&quot;&gt;52&lt;/font&gt;" style="ellipse;whiteSpace=wrap;html=1;aspect=fixed;fillColor=#dae8fc;strokeColor=#6c8ebf;sketch=1;fontColor=#000000;fontStyle=1" vertex="1" parent="1"><mxGeometry x="38" y="19537" width="47" height="47" as="geometry"/></mxCell><mxCell id="260" value="&lt;font style=&quot;font-size: 17px&quot;&gt;82&lt;/font&gt;" style="ellipse;whiteSpace=wrap;html=1;aspect=fixed;fillColor=#dae8fc;strokeColor=#6c8ebf;sketch=1;fontStyle=1;fontColor=#050505;" vertex="1" parent="1"><mxGeometry x="135" y="19537" width="47" height="47" as="geometry"/></mxCell><mxCell id="261" value="&lt;font style=&quot;font-size: 17px&quot;&gt;18&lt;/font&gt;" style="ellipse;whiteSpace=wrap;html=1;aspect=fixed;fillColor=#dae8fc;strokeColor=#6c8ebf;sketch=1;fontStyle=1;fontColor=#050505;" vertex="1" parent="1"><mxGeometry x="-101" y="19535" width="47" height="47" as="geometry"/></mxCell><mxCell id="264" value="&lt;font style=&quot;font-size: 17px&quot;&gt;27&lt;/font&gt;" style="ellipse;whiteSpace=wrap;html=1;aspect=fixed;fillColor=#dae8fc;strokeColor=#6c8ebf;sketch=1;fontStyle=1;fontColor=#050505;" vertex="1" parent="1"><mxGeometry x="-15" y="19535" width="47" height="47" as="geometry"/></mxCell><mxCell id="266" value="Nodes greater than parent:" style="text;html=1;align=left;verticalAlign=middle;resizable=0;points=[];autosize=1;fontColor=#050505;" vertex="1" parent="1"><mxGeometry x="-69" y="19620" width="157" height="18" as="geometry"/></mxCell><mxCell id="267" style="edgeStyle=none;rounded=0;sketch=1;orthogonalLoop=1;jettySize=auto;html=1;strokeColor=#050505;fontColor=#050505;entryX=0;entryY=0;entryDx=0;entryDy=0;" edge="1" source="269" target="272" parent="1"><mxGeometry relative="1" as="geometry"><mxPoint x="75.39348878496548" y="19719.339810738013" as="targetPoint"/></mxGeometry></mxCell><mxCell id="268" style="edgeStyle=none;rounded=0;sketch=1;orthogonalLoop=1;jettySize=auto;html=1;entryX=1;entryY=0;entryDx=0;entryDy=0;strokeColor=#050505;fontColor=#050505;" edge="1" source="269" target="275" parent="1"><mxGeometry relative="1" as="geometry"/></mxCell><mxCell id="269" value="&lt;font style=&quot;font-size: 17px&quot;&gt;47&lt;/font&gt;" style="ellipse;whiteSpace=wrap;html=1;aspect=fixed;fillColor=#e1d5e7;strokeColor=#9673a6;sketch=1;fontStyle=1;fontColor=#050505;" vertex="1" parent="1"><mxGeometry x="16.5" y="19646" width="47" height="47" as="geometry"/></mxCell><mxCell id="270" style="edgeStyle=none;rounded=0;sketch=1;orthogonalLoop=1;jettySize=auto;html=1;entryX=1;entryY=0;entryDx=0;entryDy=0;strokeColor=#050505;fontColor=#050505;" edge="1" source="272" target="276" parent="1"><mxGeometry relative="1" as="geometry"><mxPoint x="51.61700935788383" y="19796.882990642116" as="targetPoint"/></mxGeometry></mxCell><mxCell id="271" style="edgeStyle=none;rounded=0;sketch=1;orthogonalLoop=1;jettySize=auto;html=1;entryX=0;entryY=0;entryDx=0;entryDy=0;strokeColor=#050505;fontColor=#050505;" edge="1" source="272" target="277" parent="1"><mxGeometry relative="1" as="geometry"/></mxCell><mxCell id="272" value="&lt;font style=&quot;font-size: 17px&quot;&gt;76&lt;/font&gt;" style="ellipse;whiteSpace=wrap;html=1;aspect=fixed;fillColor=#d5e8d4;strokeColor=#82b366;sketch=1;fontStyle=1;fontColor=#050505;" vertex="1" parent="1"><mxGeometry x="79" y="19710" width="47" height="47" as="geometry"/></mxCell><mxCell id="273" style="edgeStyle=none;rounded=0;sketch=1;orthogonalLoop=1;jettySize=auto;html=1;entryX=1;entryY=0;entryDx=0;entryDy=0;strokeColor=#050505;fontColor=#050505;textOpacity=0;opacity=20;" edge="1" source="275" target="278" parent="1"><mxGeometry relative="1" as="geometry"/></mxCell><mxCell id="274" style="edgeStyle=none;rounded=0;sketch=1;orthogonalLoop=1;jettySize=auto;html=1;entryX=0;entryY=0;entryDx=0;entryDy=0;strokeColor=#050505;fontColor=#050505;textOpacity=0;opacity=20;" edge="1" source="275" target="279" parent="1"><mxGeometry relative="1" as="geometry"/></mxCell><mxCell id="275" value="&lt;font style=&quot;font-size: 17px&quot;&gt;21&lt;/font&gt;" style="ellipse;whiteSpace=wrap;html=1;aspect=fixed;fillColor=#f5f5f5;strokeColor=#666666;sketch=1;fontStyle=1;fontColor=#333333;gradientDirection=north;opacity=30;textOpacity=20;" vertex="1" parent="1"><mxGeometry x="-45.5" y="19710" width="47" height="47" as="geometry"/></mxCell><mxCell id="276" value="&lt;font style=&quot;font-size: 17px&quot;&gt;52&lt;/font&gt;" style="ellipse;whiteSpace=wrap;html=1;aspect=fixed;fillColor=#d5e8d4;strokeColor=#82b366;sketch=1;fontStyle=1;fontColor=#050505;" vertex="1" parent="1"><mxGeometry x="41" y="19787" width="47" height="47" as="geometry"/></mxCell><mxCell id="277" value="&lt;font style=&quot;font-size: 17px&quot;&gt;82&lt;/font&gt;" style="ellipse;whiteSpace=wrap;html=1;aspect=fixed;fillColor=#d5e8d4;strokeColor=#82b366;sketch=1;fontStyle=1;fontColor=#050505;" vertex="1" parent="1"><mxGeometry x="138" y="19787" width="47" height="47" as="geometry"/></mxCell><mxCell id="278" value="&lt;font style=&quot;font-size: 17px&quot;&gt;18&lt;/font&gt;" style="ellipse;whiteSpace=wrap;html=1;aspect=fixed;fillColor=#f5f5f5;strokeColor=#666666;sketch=1;fontStyle=1;fontColor=#333333;gradientDirection=north;opacity=30;textOpacity=20;" vertex="1" parent="1"><mxGeometry x="-98" y="19785" width="47" height="47" as="geometry"/></mxCell><mxCell id="279" value="&lt;font style=&quot;font-size: 17px&quot;&gt;27&lt;/font&gt;" style="ellipse;whiteSpace=wrap;html=1;aspect=fixed;fillColor=#f5f5f5;strokeColor=#666666;sketch=1;fontStyle=1;fontColor=#333333;gradientDirection=north;opacity=30;textOpacity=20;" vertex="1" parent="1"><mxGeometry x="-12" y="19785" width="47" height="47" as="geometry"/></mxCell><mxCell id="280" value="Nodes smaller than parent:" style="text;html=1;align=left;verticalAlign=middle;resizable=0;points=[];autosize=1;fontColor=#050505;" vertex="1" parent="1"><mxGeometry x="-75.5" y="19860" width="160" height="18" as="geometry"/></mxCell><mxCell id="281" style="edgeStyle=none;rounded=0;sketch=1;orthogonalLoop=1;jettySize=auto;html=1;strokeColor=#050505;fontColor=#050505;entryX=0;entryY=0;entryDx=0;entryDy=0;" edge="1" source="283" target="286" parent="1"><mxGeometry relative="1" as="geometry"><mxPoint x="68.89348878496548" y="19959.339810738013" as="targetPoint"/></mxGeometry></mxCell><mxCell id="282" style="edgeStyle=none;rounded=0;sketch=1;orthogonalLoop=1;jettySize=auto;html=1;entryX=1;entryY=0;entryDx=0;entryDy=0;strokeColor=#050505;fontColor=#050505;" edge="1" source="283" target="289" parent="1"><mxGeometry relative="1" as="geometry"/></mxCell><mxCell id="283" value="&lt;font style=&quot;font-size: 17px&quot;&gt;47&lt;/font&gt;" style="ellipse;whiteSpace=wrap;html=1;aspect=fixed;fillColor=#e1d5e7;strokeColor=#9673a6;sketch=1;fontStyle=1;fontColor=#050505;" vertex="1" parent="1"><mxGeometry x="10" y="19886" width="47" height="47" as="geometry"/></mxCell><mxCell id="284" style="edgeStyle=none;rounded=0;sketch=1;orthogonalLoop=1;jettySize=auto;html=1;entryX=1;entryY=0;entryDx=0;entryDy=0;strokeColor=#666666;fontColor=#050505;fillColor=#f5f5f5;opacity=30;textOpacity=30;" edge="1" source="286" target="290" parent="1"><mxGeometry relative="1" as="geometry"><mxPoint x="45.11700935788383" y="20036.882990642116" as="targetPoint"/></mxGeometry></mxCell><mxCell id="285" style="edgeStyle=none;rounded=0;sketch=1;orthogonalLoop=1;jettySize=auto;html=1;entryX=0;entryY=0;entryDx=0;entryDy=0;strokeColor=#666666;fontColor=#050505;fillColor=#f5f5f5;opacity=30;textOpacity=30;" edge="1" source="286" target="291" parent="1"><mxGeometry relative="1" as="geometry"/></mxCell><mxCell id="286" value="&lt;font style=&quot;font-size: 17px&quot;&gt;76&lt;/font&gt;" style="ellipse;whiteSpace=wrap;html=1;aspect=fixed;fillColor=#f5f5f5;strokeColor=#666666;sketch=1;fontStyle=1;fontColor=#333333;opacity=30;textOpacity=30;" vertex="1" parent="1"><mxGeometry x="72.5" y="19950" width="47" height="47" as="geometry"/></mxCell><mxCell id="287" style="edgeStyle=none;rounded=0;sketch=1;orthogonalLoop=1;jettySize=auto;html=1;entryX=1;entryY=0;entryDx=0;entryDy=0;strokeColor=#050505;fontColor=#050505;" edge="1" source="289" target="292" parent="1"><mxGeometry relative="1" as="geometry"/></mxCell><mxCell id="288" style="edgeStyle=none;rounded=0;sketch=1;orthogonalLoop=1;jettySize=auto;html=1;entryX=0;entryY=0;entryDx=0;entryDy=0;strokeColor=#050505;fontColor=#050505;" edge="1" source="289" target="293" parent="1"><mxGeometry relative="1" as="geometry"/></mxCell><mxCell id="289" value="&lt;font style=&quot;font-size: 17px&quot;&gt;21&lt;/font&gt;" style="ellipse;whiteSpace=wrap;html=1;aspect=fixed;fillColor=#d5e8d4;strokeColor=#82b366;sketch=1;fontStyle=1;gradientDirection=north;fontColor=#050505;" vertex="1" parent="1"><mxGeometry x="-52" y="19950" width="47" height="47" as="geometry"/></mxCell><mxCell id="290" value="&lt;font style=&quot;font-size: 17px&quot;&gt;52&lt;/font&gt;" style="ellipse;whiteSpace=wrap;html=1;aspect=fixed;fillColor=#f5f5f5;strokeColor=#666666;sketch=1;fontStyle=1;fontColor=#333333;opacity=30;textOpacity=30;" vertex="1" parent="1"><mxGeometry x="34.5" y="20027" width="47" height="47" as="geometry"/></mxCell><mxCell id="291" value="&lt;font style=&quot;font-size: 17px&quot;&gt;82&lt;/font&gt;" style="ellipse;whiteSpace=wrap;html=1;aspect=fixed;fillColor=#f5f5f5;strokeColor=#666666;sketch=1;fontStyle=1;fontColor=#333333;opacity=30;textOpacity=30;" vertex="1" parent="1"><mxGeometry x="131.5" y="20027" width="47" height="47" as="geometry"/></mxCell><mxCell id="292" value="&lt;font style=&quot;font-size: 17px&quot;&gt;18&lt;/font&gt;" style="ellipse;whiteSpace=wrap;html=1;aspect=fixed;fillColor=#d5e8d4;strokeColor=#82b366;sketch=1;fontStyle=1;gradientDirection=north;fontColor=#050505;" vertex="1" parent="1"><mxGeometry x="-104.5" y="20025" width="47" height="47" as="geometry"/></mxCell><mxCell id="293" value="&lt;font style=&quot;font-size: 17px&quot;&gt;27&lt;/font&gt;" style="ellipse;whiteSpace=wrap;html=1;aspect=fixed;fillColor=#d5e8d4;strokeColor=#82b366;sketch=1;fontStyle=1;gradientDirection=north;fontColor=#050505;" vertex="1" parent="1"><mxGeometry x="-18.5" y="20025" width="47" height="47" as="geometry"/></mxCell><mxCell id="294" style="edgeStyle=none;rounded=0;sketch=1;orthogonalLoop=1;jettySize=auto;html=1;strokeColor=#050505;fontColor=#050505;entryX=0;entryY=0;entryDx=0;entryDy=0;" edge="1" source="296" target="299" parent="1"><mxGeometry relative="1" as="geometry"><mxPoint x="62.393488784965484" y="20212.339810738013" as="targetPoint"/></mxGeometry></mxCell><mxCell id="295" style="edgeStyle=none;rounded=0;sketch=1;orthogonalLoop=1;jettySize=auto;html=1;entryX=1;entryY=0;entryDx=0;entryDy=0;strokeColor=#050505;fontColor=#050505;" edge="1" source="296" target="302" parent="1"><mxGeometry relative="1" as="geometry"/></mxCell><mxCell id="296" value="&lt;font style=&quot;font-size: 17px&quot;&gt;47&lt;/font&gt;" style="ellipse;whiteSpace=wrap;html=1;aspect=fixed;fillColor=#dae8fc;strokeColor=#6c8ebf;sketch=1;fontColor=#000000;fontStyle=1" vertex="1" parent="1"><mxGeometry x="19" y="20125" width="47" height="47" as="geometry"/></mxCell><mxCell id="297" style="edgeStyle=none;rounded=0;sketch=1;orthogonalLoop=1;jettySize=auto;html=1;entryX=1;entryY=0;entryDx=0;entryDy=0;strokeColor=#050505;fontColor=#050505;" edge="1" source="299" target="303" parent="1"><mxGeometry relative="1" as="geometry"><mxPoint x="38.61700935788383" y="20289.882990642116" as="targetPoint"/></mxGeometry></mxCell><mxCell id="298" style="edgeStyle=none;rounded=0;sketch=1;orthogonalLoop=1;jettySize=auto;html=1;entryX=0;entryY=0;entryDx=0;entryDy=0;strokeColor=#050505;fontColor=#050505;" edge="1" source="299" target="304" parent="1"><mxGeometry relative="1" as="geometry"/></mxCell><mxCell id="299" value="&lt;font style=&quot;font-size: 17px&quot;&gt;76&lt;/font&gt;" style="ellipse;whiteSpace=wrap;html=1;aspect=fixed;fillColor=#dae8fc;strokeColor=#6c8ebf;sketch=1;fontColor=#000000;fontStyle=1" vertex="1" parent="1"><mxGeometry x="93" y="20203" width="47" height="47" as="geometry"/></mxCell><mxCell id="300" style="edgeStyle=none;rounded=0;sketch=1;orthogonalLoop=1;jettySize=auto;html=1;entryX=1;entryY=0;entryDx=0;entryDy=0;strokeColor=#050505;fontColor=#050505;" edge="1" source="302" target="305" parent="1"><mxGeometry relative="1" as="geometry"/></mxCell><mxCell id="301" style="edgeStyle=none;rounded=0;sketch=1;orthogonalLoop=1;jettySize=auto;html=1;entryX=0;entryY=0;entryDx=0;entryDy=0;strokeColor=#050505;fontColor=#050505;" edge="1" source="302" target="306" parent="1"><mxGeometry relative="1" as="geometry"/></mxCell><mxCell id="302" value="&lt;font style=&quot;font-size: 17px&quot;&gt;21&lt;/font&gt;" style="ellipse;whiteSpace=wrap;html=1;aspect=fixed;fillColor=#dae8fc;strokeColor=#6c8ebf;sketch=1;fontStyle=1;fontColor=#050505;" vertex="1" parent="1"><mxGeometry x="-58.5" y="20203" width="47" height="47" as="geometry"/></mxCell><mxCell id="320" style="edgeStyle=none;rounded=0;sketch=1;orthogonalLoop=1;jettySize=auto;html=1;entryX=0.5;entryY=0;entryDx=0;entryDy=0;strokeColor=#050505;fontColor=#050505;" edge="1" parent="1" source="303" target="312"><mxGeometry relative="1" as="geometry"/></mxCell><mxCell id="321" style="edgeStyle=none;rounded=0;sketch=1;orthogonalLoop=1;jettySize=auto;html=1;strokeColor=#050505;fontColor=#050505;" edge="1" parent="1" source="303" target="311"><mxGeometry relative="1" as="geometry"/></mxCell><mxCell id="303" value="&lt;font style=&quot;font-size: 17px&quot;&gt;52&lt;/font&gt;" style="ellipse;whiteSpace=wrap;html=1;aspect=fixed;fillColor=#dae8fc;strokeColor=#6c8ebf;sketch=1;fontColor=#000000;fontStyle=1" vertex="1" parent="1"><mxGeometry x="61" y="20281" width="47" height="47" as="geometry"/></mxCell><mxCell id="322" style="edgeStyle=none;rounded=0;sketch=1;orthogonalLoop=1;jettySize=auto;html=1;entryX=0.362;entryY=0.064;entryDx=0;entryDy=0;entryPerimeter=0;strokeColor=#050505;fontColor=#050505;" edge="1" parent="1" source="304" target="314"><mxGeometry relative="1" as="geometry"/></mxCell><mxCell id="323" style="edgeStyle=none;rounded=0;sketch=1;orthogonalLoop=1;jettySize=auto;html=1;strokeColor=#050505;fontColor=#050505;" edge="1" parent="1" source="304" target="313"><mxGeometry relative="1" as="geometry"/></mxCell><mxCell id="304" value="&lt;font style=&quot;font-size: 17px&quot;&gt;82&lt;/font&gt;" style="ellipse;whiteSpace=wrap;html=1;aspect=fixed;fillColor=#dae8fc;strokeColor=#6c8ebf;sketch=1;fontStyle=1;fontColor=#050505;" vertex="1" parent="1"><mxGeometry x="161.5" y="20283" width="47" height="47" as="geometry"/></mxCell><mxCell id="316" style="edgeStyle=none;rounded=0;sketch=1;orthogonalLoop=1;jettySize=auto;html=1;entryX=1;entryY=0;entryDx=0;entryDy=0;strokeColor=#050505;fontColor=#050505;" edge="1" parent="1" source="305" target="309"><mxGeometry relative="1" as="geometry"/></mxCell><mxCell id="317" style="edgeStyle=none;rounded=0;sketch=1;orthogonalLoop=1;jettySize=auto;html=1;entryX=0.5;entryY=0;entryDx=0;entryDy=0;strokeColor=#050505;fontColor=#050505;" edge="1" parent="1" source="305" target="310"><mxGeometry relative="1" as="geometry"/></mxCell><mxCell id="305" value="&lt;font style=&quot;font-size: 17px&quot;&gt;18&lt;/font&gt;" style="ellipse;whiteSpace=wrap;html=1;aspect=fixed;fillColor=#dae8fc;strokeColor=#6c8ebf;sketch=1;fontStyle=1;fontColor=#050505;" vertex="1" parent="1"><mxGeometry x="-132" y="20281" width="47" height="47" as="geometry"/></mxCell><mxCell id="318" style="edgeStyle=none;rounded=0;sketch=1;orthogonalLoop=1;jettySize=auto;html=1;entryX=0.5;entryY=0;entryDx=0;entryDy=0;strokeColor=#050505;fontColor=#050505;" edge="1" parent="1" source="306" target="307"><mxGeometry relative="1" as="geometry"/></mxCell><mxCell id="319" style="edgeStyle=none;rounded=0;sketch=1;orthogonalLoop=1;jettySize=auto;html=1;entryX=0.5;entryY=0;entryDx=0;entryDy=0;strokeColor=#050505;fontColor=#050505;" edge="1" parent="1" source="306" target="308"><mxGeometry relative="1" as="geometry"/></mxCell><mxCell id="306" value="&lt;font style=&quot;font-size: 17px&quot;&gt;27&lt;/font&gt;" style="ellipse;whiteSpace=wrap;html=1;aspect=fixed;fillColor=#dae8fc;strokeColor=#6c8ebf;sketch=1;fontStyle=1;fontColor=#050505;" vertex="1" parent="1"><mxGeometry x="-33.5" y="20281" width="47" height="47" as="geometry"/></mxCell><mxCell id="307" value="&lt;font style=&quot;font-size: 17px&quot;&gt;25&lt;/font&gt;" style="ellipse;whiteSpace=wrap;html=1;aspect=fixed;fillColor=#dae8fc;strokeColor=#6c8ebf;sketch=1;fontColor=#000000;fontStyle=1" vertex="1" parent="1"><mxGeometry x="-57" y="20357" width="47" height="47" as="geometry"/></mxCell><mxCell id="308" value="&lt;font style=&quot;font-size: 17px&quot;&gt;30&lt;/font&gt;" style="ellipse;whiteSpace=wrap;html=1;aspect=fixed;fillColor=#dae8fc;strokeColor=#6c8ebf;sketch=1;fontStyle=1;fontColor=#050505;" vertex="1" parent="1"><mxGeometry x="-6" y="20357" width="47" height="47" as="geometry"/></mxCell><mxCell id="309" value="&lt;font style=&quot;font-size: 17px&quot;&gt;12&lt;/font&gt;" style="ellipse;whiteSpace=wrap;html=1;aspect=fixed;fillColor=#dae8fc;strokeColor=#6c8ebf;sketch=1;fontStyle=1;fontColor=#050505;" vertex="1" parent="1"><mxGeometry x="-175" y="20357" width="47" height="47" as="geometry"/></mxCell><mxCell id="310" value="&lt;font style=&quot;font-size: 17px&quot;&gt;20&lt;/font&gt;" style="ellipse;whiteSpace=wrap;html=1;aspect=fixed;fillColor=#dae8fc;strokeColor=#6c8ebf;sketch=1;fontStyle=1;fontColor=#050505;" vertex="1" parent="1"><mxGeometry x="-111" y="20357" width="47" height="47" as="geometry"/></mxCell><mxCell id="311" value="&lt;font style=&quot;font-size: 17px&quot;&gt;63&lt;/font&gt;" style="ellipse;whiteSpace=wrap;html=1;aspect=fixed;fillColor=#dae8fc;strokeColor=#6c8ebf;sketch=1;fontStyle=1;fontColor=#050505;" vertex="1" parent="1"><mxGeometry x="95" y="20359" width="47" height="47" as="geometry"/></mxCell><mxCell id="312" value="&lt;font style=&quot;font-size: 17px&quot;&gt;49&lt;/font&gt;" style="ellipse;whiteSpace=wrap;html=1;aspect=fixed;fillColor=#dae8fc;strokeColor=#6c8ebf;sketch=1;fontColor=#000000;fontStyle=1" vertex="1" parent="1"><mxGeometry x="44" y="20359" width="47" height="47" as="geometry"/></mxCell><mxCell id="313" value="&lt;font style=&quot;font-size: 17px&quot;&gt;91&lt;/font&gt;" style="ellipse;whiteSpace=wrap;html=1;aspect=fixed;fillColor=#dae8fc;strokeColor=#6c8ebf;sketch=1;fontStyle=1;fontColor=#050505;" vertex="1" parent="1"><mxGeometry x="198" y="20359" width="47" height="47" as="geometry"/></mxCell><mxCell id="314" value="&lt;font style=&quot;font-size: 17px&quot;&gt;78&lt;/font&gt;" style="ellipse;whiteSpace=wrap;html=1;aspect=fixed;fillColor=#dae8fc;strokeColor=#6c8ebf;sketch=1;fontColor=#000000;fontStyle=1" vertex="1" parent="1"><mxGeometry x="147" y="20359" width="47" height="47" as="geometry"/></mxCell><mxCell id="324" style="edgeStyle=none;rounded=0;sketch=1;orthogonalLoop=1;jettySize=auto;html=1;strokeColor=#82b366;fontColor=#050505;entryX=0;entryY=0;entryDx=0;entryDy=0;fillColor=#d5e8d4;" edge="1" source="326" target="383" parent="1"><mxGeometry relative="1" as="geometry"><mxPoint x="101.88299064211628" y="20535.882990642116" as="targetPoint"/></mxGeometry></mxCell><mxCell id="325" style="edgeStyle=none;rounded=0;sketch=1;orthogonalLoop=1;jettySize=auto;html=1;entryX=1;entryY=0;entryDx=0;entryDy=0;strokeColor=#9673a6;fontColor=#050505;fillColor=#e1d5e7;" edge="1" source="326" target="332" parent="1"><mxGeometry relative="1" as="geometry"/></mxCell><mxCell id="326" value="&lt;font style=&quot;font-size: 17px&quot;&gt;47&lt;/font&gt;" style="ellipse;whiteSpace=wrap;html=1;aspect=fixed;fillColor=#ffe6cc;strokeColor=#d79b00;sketch=1;fontStyle=1;fontColor=#050505;" vertex="1" parent="1"><mxGeometry x="21" y="20451" width="47" height="47" as="geometry"/></mxCell><mxCell id="327" style="edgeStyle=none;rounded=0;sketch=1;orthogonalLoop=1;jettySize=auto;html=1;entryX=1;entryY=0;entryDx=0;entryDy=0;strokeColor=#050505;fontColor=#050505;exitX=0.5;exitY=1;exitDx=0;exitDy=0;" edge="1" source="383" target="335" parent="1"><mxGeometry relative="1" as="geometry"><mxPoint x="40.61700935788383" y="20615.882990642116" as="targetPoint"/><mxPoint x="112.88847915050405" y="20575.32018478795" as="sourcePoint"/></mxGeometry></mxCell><mxCell id="328" style="edgeStyle=none;rounded=0;sketch=1;orthogonalLoop=1;jettySize=auto;html=1;entryX=0;entryY=0;entryDx=0;entryDy=0;strokeColor=#050505;fontColor=#050505;exitX=1;exitY=1;exitDx=0;exitDy=0;" edge="1" source="383" target="338" parent="1"><mxGeometry relative="1" as="geometry"><mxPoint x="133.28615837370535" y="20570.765254461636" as="sourcePoint"/></mxGeometry></mxCell><mxCell id="330" style="edgeStyle=none;rounded=0;sketch=1;orthogonalLoop=1;jettySize=auto;html=1;entryX=1;entryY=0;entryDx=0;entryDy=0;strokeColor=#050505;fontColor=#050505;" edge="1" source="332" target="341" parent="1"><mxGeometry relative="1" as="geometry"/></mxCell><mxCell id="331" style="edgeStyle=none;rounded=0;sketch=1;orthogonalLoop=1;jettySize=auto;html=1;entryX=0;entryY=0;entryDx=0;entryDy=0;strokeColor=#050505;fontColor=#050505;" edge="1" source="332" target="344" parent="1"><mxGeometry relative="1" as="geometry"/></mxCell><mxCell id="332" value="&lt;font style=&quot;font-size: 17px&quot;&gt;21&lt;/font&gt;" style="ellipse;whiteSpace=wrap;html=1;aspect=fixed;fillColor=#dae8fc;strokeColor=#6c8ebf;sketch=1;fontStyle=1;fontColor=#050505;" vertex="1" parent="1"><mxGeometry x="-56.5" y="20529" width="47" height="47" as="geometry"/></mxCell><mxCell id="333" style="edgeStyle=none;rounded=0;sketch=1;orthogonalLoop=1;jettySize=auto;html=1;entryX=0.5;entryY=0;entryDx=0;entryDy=0;strokeColor=#050505;fontColor=#050505;" edge="1" source="335" target="350" parent="1"><mxGeometry relative="1" as="geometry"/></mxCell><mxCell id="334" style="edgeStyle=none;rounded=0;sketch=1;orthogonalLoop=1;jettySize=auto;html=1;strokeColor=#050505;fontColor=#050505;" edge="1" source="335" target="349" parent="1"><mxGeometry relative="1" as="geometry"/></mxCell><mxCell id="335" value="&lt;font style=&quot;font-size: 17px&quot;&gt;52&lt;/font&gt;" style="ellipse;whiteSpace=wrap;html=1;aspect=fixed;fillColor=#dae8fc;strokeColor=#6c8ebf;sketch=1;fontColor=#000000;fontStyle=1" vertex="1" parent="1"><mxGeometry x="63" y="20607" width="47" height="47" as="geometry"/></mxCell><mxCell id="336" style="edgeStyle=none;rounded=0;sketch=1;orthogonalLoop=1;jettySize=auto;html=1;entryX=0.362;entryY=0.064;entryDx=0;entryDy=0;entryPerimeter=0;strokeColor=#050505;fontColor=#050505;" edge="1" source="338" target="352" parent="1"><mxGeometry relative="1" as="geometry"/></mxCell><mxCell id="337" style="edgeStyle=none;rounded=0;sketch=1;orthogonalLoop=1;jettySize=auto;html=1;strokeColor=#050505;fontColor=#050505;" edge="1" source="338" target="351" parent="1"><mxGeometry relative="1" as="geometry"/></mxCell><mxCell id="338" value="&lt;font style=&quot;font-size: 17px&quot;&gt;82&lt;/font&gt;" style="ellipse;whiteSpace=wrap;html=1;aspect=fixed;fillColor=#dae8fc;strokeColor=#6c8ebf;sketch=1;fontStyle=1;fontColor=#050505;" vertex="1" parent="1"><mxGeometry x="163.5" y="20609" width="47" height="47" as="geometry"/></mxCell><mxCell id="339" style="edgeStyle=none;rounded=0;sketch=1;orthogonalLoop=1;jettySize=auto;html=1;entryX=1;entryY=0;entryDx=0;entryDy=0;strokeColor=#050505;fontColor=#050505;" edge="1" source="341" target="347" parent="1"><mxGeometry relative="1" as="geometry"/></mxCell><mxCell id="340" style="edgeStyle=none;rounded=0;sketch=1;orthogonalLoop=1;jettySize=auto;html=1;entryX=0.5;entryY=0;entryDx=0;entryDy=0;strokeColor=#050505;fontColor=#050505;" edge="1" source="341" target="348" parent="1"><mxGeometry relative="1" as="geometry"/></mxCell><mxCell id="341" value="&lt;font style=&quot;font-size: 17px&quot;&gt;18&lt;/font&gt;" style="ellipse;whiteSpace=wrap;html=1;aspect=fixed;fillColor=#dae8fc;strokeColor=#6c8ebf;sketch=1;fontStyle=1;fontColor=#050505;" vertex="1" parent="1"><mxGeometry x="-130" y="20607" width="47" height="47" as="geometry"/></mxCell><mxCell id="342" style="edgeStyle=none;rounded=0;sketch=1;orthogonalLoop=1;jettySize=auto;html=1;entryX=0.5;entryY=0;entryDx=0;entryDy=0;strokeColor=#050505;fontColor=#050505;" edge="1" source="344" target="345" parent="1"><mxGeometry relative="1" as="geometry"/></mxCell><mxCell id="343" style="edgeStyle=none;rounded=0;sketch=1;orthogonalLoop=1;jettySize=auto;html=1;entryX=0.5;entryY=0;entryDx=0;entryDy=0;strokeColor=#050505;fontColor=#050505;" edge="1" source="344" target="346" parent="1"><mxGeometry relative="1" as="geometry"/></mxCell><mxCell id="344" value="&lt;font style=&quot;font-size: 17px&quot;&gt;27&lt;/font&gt;" style="ellipse;whiteSpace=wrap;html=1;aspect=fixed;fillColor=#dae8fc;strokeColor=#6c8ebf;sketch=1;fontStyle=1;fontColor=#050505;" vertex="1" parent="1"><mxGeometry x="-31.5" y="20607" width="47" height="47" as="geometry"/></mxCell><mxCell id="345" value="&lt;font style=&quot;font-size: 17px&quot;&gt;25&lt;/font&gt;" style="ellipse;whiteSpace=wrap;html=1;aspect=fixed;fillColor=#dae8fc;strokeColor=#6c8ebf;sketch=1;fontColor=#000000;fontStyle=1" vertex="1" parent="1"><mxGeometry x="-55" y="20683" width="47" height="47" as="geometry"/></mxCell><mxCell id="346" value="&lt;font style=&quot;font-size: 17px&quot;&gt;30&lt;/font&gt;" style="ellipse;whiteSpace=wrap;html=1;aspect=fixed;fillColor=#dae8fc;strokeColor=#6c8ebf;sketch=1;fontStyle=1;fontColor=#050505;" vertex="1" parent="1"><mxGeometry x="-4" y="20683" width="47" height="47" as="geometry"/></mxCell><mxCell id="347" value="&lt;font style=&quot;font-size: 17px&quot;&gt;12&lt;/font&gt;" style="ellipse;whiteSpace=wrap;html=1;aspect=fixed;fillColor=#dae8fc;strokeColor=#6c8ebf;sketch=1;fontStyle=1;fontColor=#050505;" vertex="1" parent="1"><mxGeometry x="-173" y="20683" width="47" height="47" as="geometry"/></mxCell><mxCell id="348" value="&lt;font style=&quot;font-size: 17px&quot;&gt;20&lt;/font&gt;" style="ellipse;whiteSpace=wrap;html=1;aspect=fixed;fillColor=#dae8fc;strokeColor=#6c8ebf;sketch=1;fontStyle=1;fontColor=#050505;" vertex="1" parent="1"><mxGeometry x="-109" y="20683" width="47" height="47" as="geometry"/></mxCell><mxCell id="349" value="&lt;font style=&quot;font-size: 17px&quot;&gt;63&lt;/font&gt;" style="ellipse;whiteSpace=wrap;html=1;aspect=fixed;fillColor=#dae8fc;strokeColor=#6c8ebf;sketch=1;fontStyle=1;fontColor=#050505;" vertex="1" parent="1"><mxGeometry x="97" y="20685" width="47" height="47" as="geometry"/></mxCell><mxCell id="350" value="&lt;font style=&quot;font-size: 17px&quot;&gt;49&lt;/font&gt;" style="ellipse;whiteSpace=wrap;html=1;aspect=fixed;fillColor=#dae8fc;strokeColor=#6c8ebf;sketch=1;fontColor=#000000;fontStyle=1" vertex="1" parent="1"><mxGeometry x="46" y="20685" width="47" height="47" as="geometry"/></mxCell><mxCell id="351" value="&lt;font style=&quot;font-size: 17px&quot;&gt;91&lt;/font&gt;" style="ellipse;whiteSpace=wrap;html=1;aspect=fixed;fillColor=#dae8fc;strokeColor=#6c8ebf;sketch=1;fontStyle=1;fontColor=#050505;" vertex="1" parent="1"><mxGeometry x="200" y="20685" width="47" height="47" as="geometry"/></mxCell><mxCell id="352" value="&lt;font style=&quot;font-size: 17px&quot;&gt;78&lt;/font&gt;" style="ellipse;whiteSpace=wrap;html=1;aspect=fixed;fillColor=#dae8fc;strokeColor=#6c8ebf;sketch=1;fontColor=#000000;fontStyle=1" vertex="1" parent="1"><mxGeometry x="149" y="20685" width="47" height="47" as="geometry"/></mxCell><mxCell id="353" value="Find the node &lt;b style=&quot;font-size: 16px&quot;&gt;49&lt;/b&gt;&lt;span style=&quot;font-size: 16px&quot;&gt;:&lt;/span&gt;" style="text;html=1;align=center;verticalAlign=middle;resizable=0;points=[];autosize=1;fontColor=#050505;fontSize=16;" vertex="1" parent="1"><mxGeometry x="-186" y="20112" width="131" height="23" as="geometry"/></mxCell><mxCell id="354" style="edgeStyle=none;rounded=0;sketch=1;orthogonalLoop=1;jettySize=auto;html=1;strokeColor=#050505;fontColor=#050505;entryX=0;entryY=0;entryDx=0;entryDy=0;" edge="1" source="356" target="359" parent="1"><mxGeometry relative="1" as="geometry"><mxPoint x="57.893488784965484" y="20887.339810738013" as="targetPoint"/></mxGeometry></mxCell><mxCell id="355" style="edgeStyle=none;rounded=0;sketch=1;orthogonalLoop=1;jettySize=auto;html=1;entryX=1;entryY=0;entryDx=0;entryDy=0;strokeColor=#666666;fontColor=#050505;fillColor=#f5f5f5;opacity=30;textOpacity=30;" edge="1" source="356" target="362" parent="1"><mxGeometry relative="1" as="geometry"/></mxCell><mxCell id="356" value="&lt;font style=&quot;font-size: 17px&quot;&gt;47&lt;/font&gt;" style="ellipse;whiteSpace=wrap;html=1;aspect=fixed;fillColor=#dae8fc;strokeColor=#6c8ebf;sketch=1;fontColor=#000000;fontStyle=1" vertex="1" parent="1"><mxGeometry x="14.5" y="20800" width="47" height="47" as="geometry"/></mxCell><mxCell id="357" style="edgeStyle=none;rounded=0;sketch=1;orthogonalLoop=1;jettySize=auto;html=1;entryX=1;entryY=0;entryDx=0;entryDy=0;strokeColor=#050505;fontColor=#050505;" edge="1" source="359" target="365" parent="1"><mxGeometry relative="1" as="geometry"><mxPoint x="34.11700935788383" y="20964.882990642116" as="targetPoint"/></mxGeometry></mxCell><mxCell id="358" style="edgeStyle=none;rounded=0;sketch=1;orthogonalLoop=1;jettySize=auto;html=1;entryX=0;entryY=0;entryDx=0;entryDy=0;strokeColor=#050505;fontColor=#050505;" edge="1" source="359" target="368" parent="1"><mxGeometry relative="1" as="geometry"/></mxCell><mxCell id="359" value="&lt;font style=&quot;font-size: 17px&quot;&gt;76&lt;/font&gt;" style="ellipse;whiteSpace=wrap;html=1;aspect=fixed;fillColor=#ffe6cc;strokeColor=#d79b00;sketch=1;fontStyle=1;fontColor=#050505;" vertex="1" parent="1"><mxGeometry x="88.5" y="20878" width="47" height="47" as="geometry"/></mxCell><mxCell id="360" style="edgeStyle=none;rounded=0;sketch=1;orthogonalLoop=1;jettySize=auto;html=1;entryX=1;entryY=0;entryDx=0;entryDy=0;strokeColor=#666666;fontColor=#050505;fillColor=#f5f5f5;opacity=30;textOpacity=30;" edge="1" source="362" target="371" parent="1"><mxGeometry relative="1" as="geometry"/></mxCell><mxCell id="361" style="edgeStyle=none;rounded=0;sketch=1;orthogonalLoop=1;jettySize=auto;html=1;entryX=0;entryY=0;entryDx=0;entryDy=0;strokeColor=#666666;fontColor=#050505;fillColor=#f5f5f5;opacity=30;textOpacity=30;" edge="1" source="362" target="374" parent="1"><mxGeometry relative="1" as="geometry"/></mxCell><mxCell id="362" value="&lt;font style=&quot;font-size: 17px&quot;&gt;21&lt;/font&gt;" style="ellipse;whiteSpace=wrap;html=1;aspect=fixed;fillColor=#f5f5f5;strokeColor=#666666;sketch=1;fontStyle=1;fontColor=#333333;opacity=30;textOpacity=30;" vertex="1" parent="1"><mxGeometry x="-63" y="20878" width="47" height="47" as="geometry"/></mxCell><mxCell id="363" style="edgeStyle=none;rounded=0;sketch=1;orthogonalLoop=1;jettySize=auto;html=1;entryX=0.5;entryY=0;entryDx=0;entryDy=0;strokeColor=#050505;fontColor=#050505;" edge="1" source="365" target="380" parent="1"><mxGeometry relative="1" as="geometry"/></mxCell><mxCell id="364" style="edgeStyle=none;rounded=0;sketch=1;orthogonalLoop=1;jettySize=auto;html=1;strokeColor=#050505;fontColor=#050505;" edge="1" source="365" target="379" parent="1"><mxGeometry relative="1" as="geometry"/></mxCell><mxCell id="365" value="&lt;font style=&quot;font-size: 17px&quot;&gt;52&lt;/font&gt;" style="ellipse;whiteSpace=wrap;html=1;aspect=fixed;fillColor=#dae8fc;strokeColor=#6c8ebf;sketch=1;fontColor=#000000;fontStyle=1" vertex="1" parent="1"><mxGeometry x="56.5" y="20956" width="47" height="47" as="geometry"/></mxCell><mxCell id="366" style="edgeStyle=none;rounded=0;sketch=1;orthogonalLoop=1;jettySize=auto;html=1;entryX=0.362;entryY=0.064;entryDx=0;entryDy=0;entryPerimeter=0;strokeColor=#050505;fontColor=#050505;" edge="1" source="368" target="382" parent="1"><mxGeometry relative="1" as="geometry"/></mxCell><mxCell id="367" style="edgeStyle=none;rounded=0;sketch=1;orthogonalLoop=1;jettySize=auto;html=1;strokeColor=#050505;fontColor=#050505;" edge="1" source="368" target="381" parent="1"><mxGeometry relative="1" as="geometry"/></mxCell><mxCell id="368" value="&lt;font style=&quot;font-size: 17px&quot;&gt;82&lt;/font&gt;" style="ellipse;whiteSpace=wrap;html=1;aspect=fixed;fillColor=#dae8fc;strokeColor=#6c8ebf;sketch=1;fontStyle=1;fontColor=#050505;" vertex="1" parent="1"><mxGeometry x="157" y="20958" width="47" height="47" as="geometry"/></mxCell><mxCell id="369" style="edgeStyle=none;rounded=0;sketch=1;orthogonalLoop=1;jettySize=auto;html=1;entryX=1;entryY=0;entryDx=0;entryDy=0;strokeColor=#666666;fontColor=#050505;fillColor=#f5f5f5;opacity=30;textOpacity=30;" edge="1" source="371" target="377" parent="1"><mxGeometry relative="1" as="geometry"/></mxCell><mxCell id="370" style="edgeStyle=none;rounded=0;sketch=1;orthogonalLoop=1;jettySize=auto;html=1;entryX=0.5;entryY=0;entryDx=0;entryDy=0;strokeColor=#666666;fontColor=#050505;fillColor=#f5f5f5;opacity=30;textOpacity=30;" edge="1" source="371" target="378" parent="1"><mxGeometry relative="1" as="geometry"/></mxCell><mxCell id="371" value="&lt;font style=&quot;font-size: 17px&quot;&gt;18&lt;/font&gt;" style="ellipse;whiteSpace=wrap;html=1;aspect=fixed;fillColor=#f5f5f5;strokeColor=#666666;sketch=1;fontStyle=1;fontColor=#333333;opacity=30;textOpacity=30;" vertex="1" parent="1"><mxGeometry x="-136.5" y="20956" width="47" height="47" as="geometry"/></mxCell><mxCell id="372" style="edgeStyle=none;rounded=0;sketch=1;orthogonalLoop=1;jettySize=auto;html=1;entryX=0.5;entryY=0;entryDx=0;entryDy=0;strokeColor=#666666;fontColor=#050505;fillColor=#f5f5f5;opacity=30;textOpacity=30;" edge="1" source="374" target="375" parent="1"><mxGeometry relative="1" as="geometry"/></mxCell><mxCell id="373" style="edgeStyle=none;rounded=0;sketch=1;orthogonalLoop=1;jettySize=auto;html=1;entryX=0.5;entryY=0;entryDx=0;entryDy=0;strokeColor=#666666;fontColor=#050505;fillColor=#f5f5f5;opacity=30;textOpacity=30;" edge="1" source="374" target="376" parent="1"><mxGeometry relative="1" as="geometry"/></mxCell><mxCell id="374" value="&lt;font style=&quot;font-size: 17px&quot;&gt;27&lt;/font&gt;" style="ellipse;whiteSpace=wrap;html=1;aspect=fixed;fillColor=#f5f5f5;strokeColor=#666666;sketch=1;fontStyle=1;fontColor=#333333;opacity=30;textOpacity=30;" vertex="1" parent="1"><mxGeometry x="-38" y="20956" width="47" height="47" as="geometry"/></mxCell><mxCell id="375" value="&lt;font style=&quot;font-size: 17px&quot;&gt;25&lt;/font&gt;" style="ellipse;whiteSpace=wrap;html=1;aspect=fixed;fillColor=#f5f5f5;strokeColor=#666666;sketch=1;fontColor=#333333;fontStyle=1;opacity=30;textOpacity=30;" vertex="1" parent="1"><mxGeometry x="-61.5" y="21032" width="47" height="47" as="geometry"/></mxCell><mxCell id="376" value="&lt;font style=&quot;font-size: 17px&quot;&gt;30&lt;/font&gt;" style="ellipse;whiteSpace=wrap;html=1;aspect=fixed;fillColor=#f5f5f5;strokeColor=#666666;sketch=1;fontStyle=1;fontColor=#333333;opacity=30;textOpacity=30;" vertex="1" parent="1"><mxGeometry x="-10.5" y="21032" width="47" height="47" as="geometry"/></mxCell><mxCell id="377" value="&lt;font style=&quot;font-size: 17px&quot;&gt;12&lt;/font&gt;" style="ellipse;whiteSpace=wrap;html=1;aspect=fixed;fillColor=#f5f5f5;strokeColor=#666666;sketch=1;fontStyle=1;fontColor=#333333;opacity=30;textOpacity=30;" vertex="1" parent="1"><mxGeometry x="-179.5" y="21032" width="47" height="47" as="geometry"/></mxCell><mxCell id="378" value="&lt;font style=&quot;font-size: 17px&quot;&gt;20&lt;/font&gt;" style="ellipse;whiteSpace=wrap;html=1;aspect=fixed;fillColor=#f5f5f5;strokeColor=#666666;sketch=1;fontStyle=1;fontColor=#333333;opacity=30;textOpacity=30;" vertex="1" parent="1"><mxGeometry x="-115.5" y="21032" width="47" height="47" as="geometry"/></mxCell><mxCell id="379" value="&lt;font style=&quot;font-size: 17px&quot;&gt;63&lt;/font&gt;" style="ellipse;whiteSpace=wrap;html=1;aspect=fixed;fillColor=#dae8fc;strokeColor=#6c8ebf;sketch=1;fontStyle=1;fontColor=#050505;" vertex="1" parent="1"><mxGeometry x="90.5" y="21034" width="47" height="47" as="geometry"/></mxCell><mxCell id="380" value="&lt;font style=&quot;font-size: 17px&quot;&gt;49&lt;/font&gt;" style="ellipse;whiteSpace=wrap;html=1;aspect=fixed;fillColor=#dae8fc;strokeColor=#6c8ebf;sketch=1;fontColor=#000000;fontStyle=1" vertex="1" parent="1"><mxGeometry x="39.5" y="21034" width="47" height="47" as="geometry"/></mxCell><mxCell id="381" value="&lt;font style=&quot;font-size: 17px&quot;&gt;91&lt;/font&gt;" style="ellipse;whiteSpace=wrap;html=1;aspect=fixed;fillColor=#dae8fc;strokeColor=#6c8ebf;sketch=1;fontStyle=1;fontColor=#050505;" vertex="1" parent="1"><mxGeometry x="193.5" y="21034" width="47" height="47" as="geometry"/></mxCell><mxCell id="382" value="&lt;font style=&quot;font-size: 17px&quot;&gt;78&lt;/font&gt;" style="ellipse;whiteSpace=wrap;html=1;aspect=fixed;fillColor=#dae8fc;strokeColor=#6c8ebf;sketch=1;fontColor=#000000;fontStyle=1" vertex="1" parent="1"><mxGeometry x="142.5" y="21034" width="47" height="47" as="geometry"/></mxCell><mxCell id="383" value="&lt;font style=&quot;font-size: 17px&quot;&gt;76&lt;/font&gt;" style="ellipse;whiteSpace=wrap;html=1;aspect=fixed;fillColor=#dae8fc;strokeColor=#6c8ebf;sketch=1;fontColor=#000000;fontStyle=1" vertex="1" parent="1"><mxGeometry x="93" y="20529" width="47" height="47" as="geometry"/></mxCell><mxCell id="384" value="&lt;b&gt;greater &lt;/b&gt;than 47" style="text;html=1;align=left;verticalAlign=middle;resizable=0;points=[];autosize=1;fontSize=16;fillColor=#d5e8d4;strokeColor=#82b366;fontColor=#050505;sketch=1;" vertex="1" parent="1"><mxGeometry x="103.5" y="20485" width="119" height="23" as="geometry"/></mxCell><mxCell id="385" value="&lt;b&gt;smaller &lt;/b&gt;than 47" style="text;html=1;align=left;verticalAlign=middle;resizable=0;points=[];autosize=1;fontSize=16;sketch=1;fillColor=#e1d5e7;strokeColor=#9673a6;fontColor=#050505;" vertex="1" parent="1"><mxGeometry x="-118.5" y="20485" width="120" height="23" as="geometry"/></mxCell><mxCell id="386" style="edgeStyle=none;rounded=0;sketch=1;orthogonalLoop=1;jettySize=auto;html=1;strokeColor=#050505;fontColor=#050505;entryX=0;entryY=0;entryDx=0;entryDy=0;" edge="1" source="388" target="391" parent="1"><mxGeometry relative="1" as="geometry"><mxPoint x="46.893488784965484" y="21219.339810738013" as="targetPoint"/></mxGeometry></mxCell><mxCell id="387" style="edgeStyle=none;rounded=0;sketch=1;orthogonalLoop=1;jettySize=auto;html=1;entryX=1;entryY=0;entryDx=0;entryDy=0;strokeColor=#666666;fontColor=#050505;fillColor=#f5f5f5;opacity=30;textOpacity=30;" edge="1" source="388" target="394" parent="1"><mxGeometry relative="1" as="geometry"/></mxCell><mxCell id="388" value="&lt;font style=&quot;font-size: 17px&quot;&gt;47&lt;/font&gt;" style="ellipse;whiteSpace=wrap;html=1;aspect=fixed;fillColor=#dae8fc;strokeColor=#6c8ebf;sketch=1;fontColor=#000000;fontStyle=1" vertex="1" parent="1"><mxGeometry x="3.5" y="21132" width="47" height="47" as="geometry"/></mxCell><mxCell id="389" style="edgeStyle=none;rounded=0;sketch=1;orthogonalLoop=1;jettySize=auto;html=1;entryX=1;entryY=0;entryDx=0;entryDy=0;strokeColor=#050505;fontColor=#050505;" edge="1" source="391" target="397" parent="1"><mxGeometry relative="1" as="geometry"><mxPoint x="23.11700935788383" y="21296.882990642116" as="targetPoint"/></mxGeometry></mxCell><mxCell id="390" style="edgeStyle=none;rounded=0;sketch=1;orthogonalLoop=1;jettySize=auto;html=1;entryX=0;entryY=0;entryDx=0;entryDy=0;fontColor=#050505;textOpacity=30;fillColor=#f5f5f5;strokeColor=#666666;opacity=30;" edge="1" source="391" target="400" parent="1"><mxGeometry relative="1" as="geometry"/></mxCell><mxCell id="391" value="&lt;font style=&quot;font-size: 17px&quot;&gt;76&lt;/font&gt;" style="ellipse;whiteSpace=wrap;html=1;aspect=fixed;fillColor=#dae8fc;strokeColor=#6c8ebf;sketch=1;fontStyle=1;fontColor=#050505;" vertex="1" parent="1"><mxGeometry x="77.5" y="21210" width="47" height="47" as="geometry"/></mxCell><mxCell id="392" style="edgeStyle=none;rounded=0;sketch=1;orthogonalLoop=1;jettySize=auto;html=1;entryX=1;entryY=0;entryDx=0;entryDy=0;strokeColor=#666666;fontColor=#050505;fillColor=#f5f5f5;opacity=30;textOpacity=30;" edge="1" source="394" target="403" parent="1"><mxGeometry relative="1" as="geometry"/></mxCell><mxCell id="393" style="edgeStyle=none;rounded=0;sketch=1;orthogonalLoop=1;jettySize=auto;html=1;entryX=0;entryY=0;entryDx=0;entryDy=0;strokeColor=#666666;fontColor=#050505;fillColor=#f5f5f5;opacity=30;textOpacity=30;" edge="1" source="394" target="406" parent="1"><mxGeometry relative="1" as="geometry"/></mxCell><mxCell id="394" value="&lt;font style=&quot;font-size: 17px&quot;&gt;21&lt;/font&gt;" style="ellipse;whiteSpace=wrap;html=1;aspect=fixed;fillColor=#f5f5f5;strokeColor=#666666;sketch=1;fontStyle=1;fontColor=#333333;opacity=30;textOpacity=30;" vertex="1" parent="1"><mxGeometry x="-74" y="21210" width="47" height="47" as="geometry"/></mxCell><mxCell id="395" style="edgeStyle=none;rounded=0;sketch=1;orthogonalLoop=1;jettySize=auto;html=1;entryX=0.5;entryY=0;entryDx=0;entryDy=0;strokeColor=#050505;fontColor=#050505;" edge="1" source="397" target="412" parent="1"><mxGeometry relative="1" as="geometry"/></mxCell><mxCell id="396" style="edgeStyle=none;rounded=0;sketch=1;orthogonalLoop=1;jettySize=auto;html=1;strokeColor=#666666;fontColor=#050505;fillColor=#f5f5f5;opacity=30;textOpacity=30;" edge="1" source="397" target="411" parent="1"><mxGeometry relative="1" as="geometry"/></mxCell><mxCell id="397" value="&lt;font style=&quot;font-size: 17px&quot;&gt;52&lt;/font&gt;" style="ellipse;whiteSpace=wrap;html=1;aspect=fixed;fillColor=#dae8fc;strokeColor=#6c8ebf;sketch=1;fontStyle=1;fontColor=#050505;" vertex="1" parent="1"><mxGeometry x="45.5" y="21288" width="47" height="47" as="geometry"/></mxCell><mxCell id="398" style="edgeStyle=none;rounded=0;sketch=1;orthogonalLoop=1;jettySize=auto;html=1;entryX=0.362;entryY=0.064;entryDx=0;entryDy=0;entryPerimeter=0;fontColor=#050505;textOpacity=30;fillColor=#f5f5f5;strokeColor=#666666;opacity=30;" edge="1" source="400" target="414" parent="1"><mxGeometry relative="1" as="geometry"/></mxCell><mxCell id="399" style="edgeStyle=none;rounded=0;sketch=1;orthogonalLoop=1;jettySize=auto;html=1;fontColor=#050505;textOpacity=30;fillColor=#f5f5f5;strokeColor=#666666;opacity=30;" edge="1" source="400" target="413" parent="1"><mxGeometry relative="1" as="geometry"/></mxCell><mxCell id="400" value="&lt;font style=&quot;font-size: 17px&quot;&gt;82&lt;/font&gt;" style="ellipse;whiteSpace=wrap;html=1;aspect=fixed;sketch=1;fontStyle=1;textOpacity=30;fillColor=#f5f5f5;strokeColor=#666666;fontColor=#333333;opacity=30;" vertex="1" parent="1"><mxGeometry x="146" y="21290" width="47" height="47" as="geometry"/></mxCell><mxCell id="401" style="edgeStyle=none;rounded=0;sketch=1;orthogonalLoop=1;jettySize=auto;html=1;entryX=1;entryY=0;entryDx=0;entryDy=0;strokeColor=#666666;fontColor=#050505;fillColor=#f5f5f5;opacity=30;textOpacity=30;" edge="1" source="403" target="409" parent="1"><mxGeometry relative="1" as="geometry"/></mxCell><mxCell id="402" style="edgeStyle=none;rounded=0;sketch=1;orthogonalLoop=1;jettySize=auto;html=1;entryX=0.5;entryY=0;entryDx=0;entryDy=0;strokeColor=#666666;fontColor=#050505;fillColor=#f5f5f5;opacity=30;textOpacity=30;" edge="1" source="403" target="410" parent="1"><mxGeometry relative="1" as="geometry"/></mxCell><mxCell id="403" value="&lt;font style=&quot;font-size: 17px&quot;&gt;18&lt;/font&gt;" style="ellipse;whiteSpace=wrap;html=1;aspect=fixed;fillColor=#f5f5f5;strokeColor=#666666;sketch=1;fontStyle=1;fontColor=#333333;opacity=30;textOpacity=30;" vertex="1" parent="1"><mxGeometry x="-147.5" y="21288" width="47" height="47" as="geometry"/></mxCell><mxCell id="404" style="edgeStyle=none;rounded=0;sketch=1;orthogonalLoop=1;jettySize=auto;html=1;entryX=0.5;entryY=0;entryDx=0;entryDy=0;strokeColor=#666666;fontColor=#050505;fillColor=#f5f5f5;opacity=30;textOpacity=30;" edge="1" source="406" target="407" parent="1"><mxGeometry relative="1" as="geometry"/></mxCell><mxCell id="405" style="edgeStyle=none;rounded=0;sketch=1;orthogonalLoop=1;jettySize=auto;html=1;entryX=0.5;entryY=0;entryDx=0;entryDy=0;strokeColor=#666666;fontColor=#050505;fillColor=#f5f5f5;opacity=30;textOpacity=30;" edge="1" source="406" target="408" parent="1"><mxGeometry relative="1" as="geometry"/></mxCell><mxCell id="406" value="&lt;font style=&quot;font-size: 17px&quot;&gt;27&lt;/font&gt;" style="ellipse;whiteSpace=wrap;html=1;aspect=fixed;fillColor=#f5f5f5;strokeColor=#666666;sketch=1;fontStyle=1;fontColor=#333333;opacity=30;textOpacity=30;" vertex="1" parent="1"><mxGeometry x="-49" y="21288" width="47" height="47" as="geometry"/></mxCell><mxCell id="407" value="&lt;font style=&quot;font-size: 17px&quot;&gt;25&lt;/font&gt;" style="ellipse;whiteSpace=wrap;html=1;aspect=fixed;fillColor=#f5f5f5;strokeColor=#666666;sketch=1;fontColor=#333333;fontStyle=1;opacity=30;textOpacity=30;" vertex="1" parent="1"><mxGeometry x="-72.5" y="21364" width="47" height="47" as="geometry"/></mxCell><mxCell id="408" value="&lt;font style=&quot;font-size: 17px&quot;&gt;30&lt;/font&gt;" style="ellipse;whiteSpace=wrap;html=1;aspect=fixed;fillColor=#f5f5f5;strokeColor=#666666;sketch=1;fontStyle=1;fontColor=#333333;opacity=30;textOpacity=30;" vertex="1" parent="1"><mxGeometry x="-21.5" y="21364" width="47" height="47" as="geometry"/></mxCell><mxCell id="409" value="&lt;font style=&quot;font-size: 17px&quot;&gt;12&lt;/font&gt;" style="ellipse;whiteSpace=wrap;html=1;aspect=fixed;fillColor=#f5f5f5;strokeColor=#666666;sketch=1;fontStyle=1;fontColor=#333333;opacity=30;textOpacity=30;" vertex="1" parent="1"><mxGeometry x="-190.5" y="21364" width="47" height="47" as="geometry"/></mxCell><mxCell id="410" value="&lt;font style=&quot;font-size: 17px&quot;&gt;20&lt;/font&gt;" style="ellipse;whiteSpace=wrap;html=1;aspect=fixed;fillColor=#f5f5f5;strokeColor=#666666;sketch=1;fontStyle=1;fontColor=#333333;opacity=30;textOpacity=30;" vertex="1" parent="1"><mxGeometry x="-126.5" y="21364" width="47" height="47" as="geometry"/></mxCell><mxCell id="411" value="&lt;font style=&quot;font-size: 17px&quot;&gt;63&lt;/font&gt;" style="ellipse;whiteSpace=wrap;html=1;aspect=fixed;fillColor=#f5f5f5;strokeColor=#666666;sketch=1;fontStyle=1;fontColor=#333333;opacity=30;textOpacity=30;" vertex="1" parent="1"><mxGeometry x="79.5" y="21366" width="47" height="47" as="geometry"/></mxCell><mxCell id="412" value="&lt;font style=&quot;font-size: 17px&quot;&gt;49&lt;/font&gt;" style="ellipse;whiteSpace=wrap;html=1;aspect=fixed;fillColor=#ffe6cc;strokeColor=#d79b00;sketch=1;fontStyle=1;fontColor=#050505;" vertex="1" parent="1"><mxGeometry x="28.5" y="21366" width="47" height="47" as="geometry"/></mxCell><mxCell id="413" value="&lt;font style=&quot;font-size: 17px&quot;&gt;91&lt;/font&gt;" style="ellipse;whiteSpace=wrap;html=1;aspect=fixed;sketch=1;fontStyle=1;textOpacity=30;fillColor=#f5f5f5;strokeColor=#666666;fontColor=#333333;opacity=30;" vertex="1" parent="1"><mxGeometry x="182.5" y="21366" width="47" height="47" as="geometry"/></mxCell><mxCell id="414" value="&lt;font style=&quot;font-size: 17px&quot;&gt;78&lt;/font&gt;" style="ellipse;whiteSpace=wrap;html=1;aspect=fixed;sketch=1;fontStyle=1;textOpacity=30;fillColor=#f5f5f5;strokeColor=#666666;fontColor=#333333;opacity=30;" vertex="1" parent="1"><mxGeometry x="131.5" y="21366" width="47" height="47" as="geometry"/></mxCell><mxCell id="415" style="edgeStyle=none;rounded=0;sketch=1;orthogonalLoop=1;jettySize=auto;html=1;strokeColor=#050505;fontColor=#050505;entryX=0;entryY=0;entryDx=0;entryDy=0;" edge="1" source="417" target="420" parent="1"><mxGeometry relative="1" as="geometry"><mxPoint x="57.893488784965484" y="21587.339810738013" as="targetPoint"/></mxGeometry></mxCell><mxCell id="416" style="edgeStyle=none;rounded=0;sketch=1;orthogonalLoop=1;jettySize=auto;html=1;entryX=1;entryY=0;entryDx=0;entryDy=0;strokeColor=#050505;fontColor=#050505;" edge="1" source="417" target="423" parent="1"><mxGeometry relative="1" as="geometry"/></mxCell><mxCell id="417" value="&lt;font style=&quot;font-size: 17px&quot;&gt;47&lt;/font&gt;" style="ellipse;whiteSpace=wrap;html=1;aspect=fixed;fillColor=#dae8fc;strokeColor=#6c8ebf;sketch=1;fontColor=#000000;fontStyle=1" vertex="1" parent="1"><mxGeometry x="14.5" y="21500" width="47" height="47" as="geometry"/></mxCell><mxCell id="418" style="edgeStyle=none;rounded=0;sketch=1;orthogonalLoop=1;jettySize=auto;html=1;entryX=1;entryY=0;entryDx=0;entryDy=0;strokeColor=#050505;fontColor=#050505;" edge="1" source="420" target="426" parent="1"><mxGeometry relative="1" as="geometry"><mxPoint x="34.11700935788383" y="21664.882990642116" as="targetPoint"/></mxGeometry></mxCell><mxCell id="419" style="edgeStyle=none;rounded=0;sketch=1;orthogonalLoop=1;jettySize=auto;html=1;entryX=0;entryY=0;entryDx=0;entryDy=0;strokeColor=#050505;fontColor=#050505;" edge="1" source="420" target="429" parent="1"><mxGeometry relative="1" as="geometry"/></mxCell><mxCell id="420" value="&lt;font style=&quot;font-size: 17px&quot;&gt;76&lt;/font&gt;" style="ellipse;whiteSpace=wrap;html=1;aspect=fixed;fillColor=#dae8fc;strokeColor=#6c8ebf;sketch=1;fontColor=#000000;fontStyle=1" vertex="1" parent="1"><mxGeometry x="88.5" y="21578" width="47" height="47" as="geometry"/></mxCell><mxCell id="421" style="edgeStyle=none;rounded=0;sketch=1;orthogonalLoop=1;jettySize=auto;html=1;entryX=1;entryY=0;entryDx=0;entryDy=0;strokeColor=#050505;fontColor=#050505;" edge="1" source="423" target="432" parent="1"><mxGeometry relative="1" as="geometry"/></mxCell><mxCell id="423" value="&lt;font style=&quot;font-size: 17px&quot;&gt;21&lt;/font&gt;" style="ellipse;whiteSpace=wrap;html=1;aspect=fixed;fillColor=#dae8fc;strokeColor=#6c8ebf;sketch=1;fontStyle=1;fontColor=#050505;" vertex="1" parent="1"><mxGeometry x="-63" y="21578" width="47" height="47" as="geometry"/></mxCell><mxCell id="424" style="edgeStyle=none;rounded=0;sketch=1;orthogonalLoop=1;jettySize=auto;html=1;entryX=0.5;entryY=0;entryDx=0;entryDy=0;strokeColor=#050505;fontColor=#050505;" edge="1" source="426" target="441" parent="1"><mxGeometry relative="1" as="geometry"/></mxCell><mxCell id="426" value="&lt;font style=&quot;font-size: 17px&quot;&gt;52&lt;/font&gt;" style="ellipse;whiteSpace=wrap;html=1;aspect=fixed;fillColor=#dae8fc;strokeColor=#6c8ebf;sketch=1;fontColor=#000000;fontStyle=1" vertex="1" parent="1"><mxGeometry x="56.5" y="21656" width="47" height="47" as="geometry"/></mxCell><mxCell id="429" value="&lt;font style=&quot;font-size: 17px&quot;&gt;82&lt;/font&gt;" style="ellipse;whiteSpace=wrap;html=1;aspect=fixed;fillColor=#dae8fc;strokeColor=#6c8ebf;sketch=1;fontStyle=1;fontColor=#050505;" vertex="1" parent="1"><mxGeometry x="157" y="21658" width="47" height="47" as="geometry"/></mxCell><mxCell id="430" style="edgeStyle=none;rounded=0;sketch=1;orthogonalLoop=1;jettySize=auto;html=1;entryX=1;entryY=0;entryDx=0;entryDy=0;strokeColor=#050505;fontColor=#050505;" edge="1" source="432" target="438" parent="1"><mxGeometry relative="1" as="geometry"/></mxCell><mxCell id="431" style="edgeStyle=none;rounded=0;sketch=1;orthogonalLoop=1;jettySize=auto;html=1;entryX=0.5;entryY=0;entryDx=0;entryDy=0;strokeColor=#050505;fontColor=#050505;" edge="1" source="432" target="439" parent="1"><mxGeometry relative="1" as="geometry"/></mxCell><mxCell id="432" value="&lt;font style=&quot;font-size: 17px&quot;&gt;18&lt;/font&gt;" style="ellipse;whiteSpace=wrap;html=1;aspect=fixed;fillColor=#dae8fc;strokeColor=#6c8ebf;sketch=1;fontStyle=1;fontColor=#050505;" vertex="1" parent="1"><mxGeometry x="-136.5" y="21656" width="47" height="47" as="geometry"/></mxCell><mxCell id="438" value="&lt;font style=&quot;font-size: 17px&quot;&gt;12&lt;/font&gt;" style="ellipse;whiteSpace=wrap;html=1;aspect=fixed;fillColor=#dae8fc;strokeColor=#6c8ebf;sketch=1;fontStyle=1;fontColor=#050505;" vertex="1" parent="1"><mxGeometry x="-179.5" y="21732" width="47" height="47" as="geometry"/></mxCell><mxCell id="439" value="&lt;font style=&quot;font-size: 17px&quot;&gt;20&lt;/font&gt;" style="ellipse;whiteSpace=wrap;html=1;aspect=fixed;fillColor=#dae8fc;strokeColor=#6c8ebf;sketch=1;fontStyle=1;fontColor=#050505;" vertex="1" parent="1"><mxGeometry x="-115.5" y="21732" width="47" height="47" as="geometry"/></mxCell><mxCell id="441" value="&lt;font style=&quot;font-size: 17px&quot;&gt;49&lt;/font&gt;" style="ellipse;whiteSpace=wrap;html=1;aspect=fixed;fillColor=#dae8fc;strokeColor=#6c8ebf;sketch=1;fontColor=#000000;fontStyle=1" vertex="1" parent="1"><mxGeometry x="39.5" y="21734" width="47" height="47" as="geometry"/></mxCell><mxCell id="444" style="edgeStyle=none;rounded=0;sketch=1;orthogonalLoop=1;jettySize=auto;html=1;strokeColor=#050505;fontColor=#050505;entryX=0;entryY=0;entryDx=0;entryDy=0;" edge="1" source="446" target="449" parent="1"><mxGeometry relative="1" as="geometry"><mxPoint x="-32.856511215034516" y="21958.339810738013" as="targetPoint"/></mxGeometry></mxCell><mxCell id="446" value="&lt;font style=&quot;font-size: 17px&quot;&gt;47&lt;/font&gt;" style="ellipse;whiteSpace=wrap;html=1;aspect=fixed;fillColor=#dae8fc;strokeColor=#6c8ebf;sketch=1;fontColor=#000000;fontStyle=1" vertex="1" parent="1"><mxGeometry x="-76.25" y="21871" width="47" height="47" as="geometry"/></mxCell><mxCell id="448" style="edgeStyle=none;rounded=0;sketch=1;orthogonalLoop=1;jettySize=auto;html=1;entryX=0;entryY=0;entryDx=0;entryDy=0;strokeColor=#050505;fontColor=#050505;" edge="1" source="449" target="454" parent="1"><mxGeometry relative="1" as="geometry"/></mxCell><mxCell id="449" value="&lt;font style=&quot;font-size: 17px&quot;&gt;76&lt;/font&gt;" style="ellipse;whiteSpace=wrap;html=1;aspect=fixed;fillColor=#dae8fc;strokeColor=#6c8ebf;sketch=1;fontColor=#000000;fontStyle=1" vertex="1" parent="1"><mxGeometry x="-2.25" y="21949" width="47" height="47" as="geometry"/></mxCell><mxCell id="463" style="edgeStyle=none;rounded=0;sketch=1;orthogonalLoop=1;jettySize=auto;html=1;entryX=0;entryY=0;entryDx=0;entryDy=0;strokeColor=#050505;fontSize=16;fontColor=#050505;" edge="1" parent="1" source="454" target="460"><mxGeometry relative="1" as="geometry"/></mxCell><mxCell id="454" value="&lt;font style=&quot;font-size: 17px&quot;&gt;82&lt;/font&gt;" style="ellipse;whiteSpace=wrap;html=1;aspect=fixed;fillColor=#dae8fc;strokeColor=#6c8ebf;sketch=1;fontStyle=1;fontColor=#050505;" vertex="1" parent="1"><mxGeometry x="66.25" y="22029" width="47" height="47" as="geometry"/></mxCell><mxCell id="460" value="&lt;font style=&quot;font-size: 17px&quot;&gt;91&lt;br&gt;&lt;/font&gt;" style="ellipse;whiteSpace=wrap;html=1;aspect=fixed;fillColor=#dae8fc;strokeColor=#6c8ebf;sketch=1;fontColor=#000000;fontStyle=1" vertex="1" parent="1"><mxGeometry x="123" y="22103" width="47" height="47" as="geometry"/></mxCell><mxCell id="461" value="Worst Case Scenario" style="text;html=1;align=center;verticalAlign=middle;resizable=0;points=[];autosize=1;fontColor=#050505;fontSize=16;" vertex="1" parent="1"><mxGeometry x="-208" y="21831" width="160" height="23" as="geometry"/></mxCell><mxCell id="462" style="edgeStyle=none;rounded=0;sketch=1;orthogonalLoop=1;jettySize=auto;html=1;exitX=0;exitY=1;exitDx=0;exitDy=0;strokeColor=#050505;fontSize=16;fontColor=#050505;opacity=30;" edge="1" parent="1" source="460" target="460"><mxGeometry relative="1" as="geometry"/></mxCell><mxCell id="464" style="edgeStyle=none;rounded=0;sketch=1;orthogonalLoop=1;jettySize=auto;html=1;strokeColor=#050505;fontColor=#050505;entryX=0;entryY=0.5;entryDx=0;entryDy=0;" edge="1" source="465" target="467" parent="1"><mxGeometry relative="1" as="geometry"><mxPoint x="-174.35651121503452" y="22313.339810738013" as="targetPoint"/></mxGeometry></mxCell><mxCell id="465" value="&lt;font style=&quot;font-size: 17px&quot;&gt;47&lt;/font&gt;" style="ellipse;whiteSpace=wrap;html=1;aspect=fixed;fillColor=#dae8fc;strokeColor=#6c8ebf;sketch=1;fontColor=#000000;fontStyle=1" vertex="1" parent="1"><mxGeometry x="-217.75" y="22226" width="47" height="47" as="geometry"/></mxCell><mxCell id="466" style="edgeStyle=none;rounded=0;sketch=1;orthogonalLoop=1;jettySize=auto;html=1;entryX=0;entryY=0.5;entryDx=0;entryDy=0;strokeColor=#050505;fontColor=#050505;" edge="1" source="467" target="469" parent="1"><mxGeometry relative="1" as="geometry"/></mxCell><mxCell id="467" value="&lt;font style=&quot;font-size: 17px&quot;&gt;76&lt;/font&gt;" style="ellipse;whiteSpace=wrap;html=1;aspect=fixed;fillColor=#dae8fc;strokeColor=#6c8ebf;sketch=1;fontColor=#000000;fontStyle=1" vertex="1" parent="1"><mxGeometry x="-115" y="22226" width="47" height="47" as="geometry"/></mxCell><mxCell id="468" style="edgeStyle=none;rounded=0;sketch=1;orthogonalLoop=1;jettySize=auto;html=1;entryX=0;entryY=0.5;entryDx=0;entryDy=0;strokeColor=#050505;fontSize=16;fontColor=#050505;" edge="1" source="469" target="470" parent="1"><mxGeometry relative="1" as="geometry"/></mxCell><mxCell id="469" value="&lt;font style=&quot;font-size: 17px&quot;&gt;82&lt;/font&gt;" style="ellipse;whiteSpace=wrap;html=1;aspect=fixed;fillColor=#dae8fc;strokeColor=#6c8ebf;sketch=1;fontStyle=1;fontColor=#050505;" vertex="1" parent="1"><mxGeometry x="-25.5" y="22226" width="47" height="47" as="geometry"/></mxCell><mxCell id="470" value="&lt;font style=&quot;font-size: 17px&quot;&gt;91&lt;br&gt;&lt;/font&gt;" style="ellipse;whiteSpace=wrap;html=1;aspect=fixed;fillColor=#ffe6cc;strokeColor=#d79b00;sketch=1;fontStyle=1;fontColor=#050505;" vertex="1" parent="1"><mxGeometry x="69" y="22226" width="47" height="47" as="geometry"/></mxCell><mxCell id="476" style="edgeStyle=none;rounded=0;sketch=1;orthogonalLoop=1;jettySize=auto;html=1;strokeColor=#050505;fontSize=16;fontColor=#050505;" edge="1" parent="1" source="472"><mxGeometry relative="1" as="geometry"><mxPoint x="-194.25" y="22218" as="targetPoint"/></mxGeometry></mxCell><mxCell id="472" value="1st step" style="text;html=1;align=center;verticalAlign=middle;resizable=0;points=[];autosize=1;fontColor=#050505;fontSize=16;" vertex="1" parent="1"><mxGeometry x="-226.75" y="22176" width="65" height="23" as="geometry"/></mxCell><mxCell id="477" style="edgeStyle=none;rounded=0;sketch=1;orthogonalLoop=1;jettySize=auto;html=1;strokeColor=#050505;fontSize=16;fontColor=#050505;" edge="1" parent="1" source="473"><mxGeometry relative="1" as="geometry"><mxPoint x="-86" y="22216" as="targetPoint"/></mxGeometry></mxCell><mxCell id="473" value="2nd step" style="text;html=1;align=center;verticalAlign=middle;resizable=0;points=[];autosize=1;fontColor=#050505;fontSize=16;" vertex="1" parent="1"><mxGeometry x="-126" y="22176" width="70" height="23" as="geometry"/></mxCell><mxCell id="478" style="edgeStyle=none;rounded=0;sketch=1;orthogonalLoop=1;jettySize=auto;html=1;strokeColor=#050505;fontSize=16;fontColor=#050505;" edge="1" parent="1" source="474"><mxGeometry relative="1" as="geometry"><mxPoint x="2" y="22218" as="targetPoint"/></mxGeometry></mxCell><mxCell id="474" value="3rd step" style="text;html=1;align=center;verticalAlign=middle;resizable=0;points=[];autosize=1;fontColor=#050505;fontSize=16;" vertex="1" parent="1"><mxGeometry x="-31.5" y="22176" width="67" height="23" as="geometry"/></mxCell><mxCell id="479" style="edgeStyle=none;rounded=0;sketch=1;orthogonalLoop=1;jettySize=auto;html=1;strokeColor=#050505;fontSize=16;fontColor=#050505;" edge="1" parent="1" source="475"><mxGeometry relative="1" as="geometry"><mxPoint x="92.5" y="22221" as="targetPoint"/></mxGeometry></mxCell><mxCell id="475" value="4th step" style="text;html=1;align=center;verticalAlign=middle;resizable=0;points=[];autosize=1;fontColor=#050505;fontSize=16;" vertex="1" parent="1"><mxGeometry x="60" y="22176" width="65" height="23" as="geometry"/></mxCell><mxCell id="480" value="" style="shape=cross;whiteSpace=wrap;html=1;sketch=1;strokeColor=#b85450;fontSize=16;align=left;rotation=-45;fillColor=#B33232;" vertex="1" parent="1"><mxGeometry x="55.5" y="22212.5" width="68.5" height="74" as="geometry"/></mxCell><mxCell id="481" style="edgeStyle=none;rounded=0;sketch=1;orthogonalLoop=1;jettySize=auto;html=1;strokeColor=#050505;fontColor=#050505;entryX=0;entryY=0.5;entryDx=0;entryDy=0;" edge="1" source="482" target="484" parent="1"><mxGeometry relative="1" as="geometry"><mxPoint x="-174.35651121503452" y="22467.339810738013" as="targetPoint"/></mxGeometry></mxCell><mxCell id="482" value="&lt;font style=&quot;font-size: 17px&quot;&gt;47&lt;/font&gt;" style="ellipse;whiteSpace=wrap;html=1;aspect=fixed;fillColor=#dae8fc;strokeColor=#6c8ebf;sketch=1;fontColor=#000000;fontStyle=1" vertex="1" parent="1"><mxGeometry x="-217.75" y="22380" width="47" height="47" as="geometry"/></mxCell><mxCell id="483" style="edgeStyle=none;rounded=0;sketch=1;orthogonalLoop=1;jettySize=auto;html=1;entryX=0;entryY=0.5;entryDx=0;entryDy=0;strokeColor=#050505;fontColor=#050505;" edge="1" source="484" target="486" parent="1"><mxGeometry relative="1" as="geometry"/></mxCell><mxCell id="484" value="&lt;font style=&quot;font-size: 17px&quot;&gt;76&lt;/font&gt;" style="ellipse;whiteSpace=wrap;html=1;aspect=fixed;fillColor=#dae8fc;strokeColor=#6c8ebf;sketch=1;fontColor=#000000;fontStyle=1" vertex="1" parent="1"><mxGeometry x="-115" y="22380" width="47" height="47" as="geometry"/></mxCell><mxCell id="485" style="edgeStyle=none;rounded=0;sketch=1;orthogonalLoop=1;jettySize=auto;html=1;entryX=0;entryY=0.5;entryDx=0;entryDy=0;strokeColor=#050505;fontSize=16;fontColor=#050505;" edge="1" source="486" target="487" parent="1"><mxGeometry relative="1" as="geometry"/></mxCell><mxCell id="486" value="&lt;font style=&quot;font-size: 17px&quot;&gt;82&lt;/font&gt;" style="ellipse;whiteSpace=wrap;html=1;aspect=fixed;fillColor=#dae8fc;strokeColor=#6c8ebf;sketch=1;fontStyle=1;fontColor=#050505;" vertex="1" parent="1"><mxGeometry x="-25.5" y="22380" width="47" height="47" as="geometry"/></mxCell><mxCell id="501" value="" style="edgeStyle=none;rounded=0;sketch=1;orthogonalLoop=1;jettySize=auto;html=1;strokeColor=#050505;fontSize=16;fontColor=#050505;" edge="1" parent="1" source="487" target="498"><mxGeometry relative="1" as="geometry"/></mxCell><mxCell id="487" value="&lt;font style=&quot;font-size: 17px&quot;&gt;91&lt;br&gt;&lt;/font&gt;" style="ellipse;whiteSpace=wrap;html=1;aspect=fixed;fillColor=#dae8fc;strokeColor=#6c8ebf;sketch=1;fontStyle=1;fontColor=#050505;" vertex="1" parent="1"><mxGeometry x="69" y="22380" width="47" height="47" as="geometry"/></mxCell><mxCell id="498" value="&lt;font style=&quot;font-size: 17px&quot;&gt;78&lt;br&gt;&lt;/font&gt;" style="ellipse;whiteSpace=wrap;html=1;aspect=fixed;fillColor=#ffe6cc;strokeColor=#d79b00;sketch=1;fontStyle=1;fontColor=#050505;" vertex="1" parent="1"><mxGeometry x="158" y="22380" width="47" height="47" as="geometry"/></mxCell><mxCell id="499" style="edgeStyle=none;rounded=0;sketch=1;orthogonalLoop=1;jettySize=auto;html=1;strokeColor=#050505;fontSize=16;fontColor=#050505;" edge="1" source="500" parent="1"><mxGeometry relative="1" as="geometry"><mxPoint x="181.5" y="22375" as="targetPoint"/></mxGeometry></mxCell><mxCell id="500" value="1st step" style="text;html=1;align=center;verticalAlign=middle;resizable=0;points=[];autosize=1;fontColor=#050505;fontSize=16;" vertex="1" parent="1"><mxGeometry x="149" y="22330" width="65" height="23" as="geometry"/></mxCell><mxCell id="502" style="edgeStyle=none;rounded=0;sketch=1;orthogonalLoop=1;jettySize=auto;html=1;strokeColor=#050505;fontColor=#050505;entryX=0;entryY=0;entryDx=0;entryDy=0;" edge="1" source="504" target="507" parent="1"><mxGeometry relative="1" as="geometry"><mxPoint x="39.393488784965484" y="22601.339810738013" as="targetPoint"/></mxGeometry></mxCell><mxCell id="503" style="edgeStyle=none;rounded=0;sketch=1;orthogonalLoop=1;jettySize=auto;html=1;entryX=1;entryY=0;entryDx=0;entryDy=0;strokeColor=#050505;fontColor=#050505;" edge="1" source="504" target="510" parent="1"><mxGeometry relative="1" as="geometry"/></mxCell><mxCell id="504" value="&lt;font style=&quot;font-size: 17px&quot;&gt;47&lt;/font&gt;" style="ellipse;whiteSpace=wrap;html=1;aspect=fixed;fillColor=#dae8fc;strokeColor=#6c8ebf;sketch=1;fontColor=#000000;fontStyle=1" vertex="1" parent="1"><mxGeometry x="-4" y="22514" width="47" height="47" as="geometry"/></mxCell><mxCell id="505" style="edgeStyle=none;rounded=0;sketch=1;orthogonalLoop=1;jettySize=auto;html=1;entryX=1;entryY=0;entryDx=0;entryDy=0;strokeColor=#050505;fontColor=#050505;" edge="1" source="507" target="513" parent="1"><mxGeometry relative="1" as="geometry"><mxPoint x="15.61700935788383" y="22678.882990642116" as="targetPoint"/></mxGeometry></mxCell><mxCell id="506" style="edgeStyle=none;rounded=0;sketch=1;orthogonalLoop=1;jettySize=auto;html=1;entryX=0;entryY=0;entryDx=0;entryDy=0;strokeColor=#050505;fontColor=#050505;" edge="1" source="507" target="516" parent="1"><mxGeometry relative="1" as="geometry"/></mxCell><mxCell id="507" value="&lt;font style=&quot;font-size: 17px&quot;&gt;76&lt;/font&gt;" style="ellipse;whiteSpace=wrap;html=1;aspect=fixed;fillColor=#dae8fc;strokeColor=#6c8ebf;sketch=1;fontColor=#000000;fontStyle=1" vertex="1" parent="1"><mxGeometry x="70" y="22592" width="47" height="47" as="geometry"/></mxCell><mxCell id="508" style="edgeStyle=none;rounded=0;sketch=1;orthogonalLoop=1;jettySize=auto;html=1;entryX=1;entryY=0;entryDx=0;entryDy=0;strokeColor=#050505;fontColor=#050505;" edge="1" source="510" target="519" parent="1"><mxGeometry relative="1" as="geometry"/></mxCell><mxCell id="509" style="edgeStyle=none;rounded=0;sketch=1;orthogonalLoop=1;jettySize=auto;html=1;entryX=0;entryY=0;entryDx=0;entryDy=0;strokeColor=#050505;fontColor=#050505;" edge="1" source="510" target="522" parent="1"><mxGeometry relative="1" as="geometry"/></mxCell><mxCell id="510" value="&lt;font style=&quot;font-size: 17px&quot;&gt;21&lt;/font&gt;" style="ellipse;whiteSpace=wrap;html=1;aspect=fixed;fillColor=#dae8fc;strokeColor=#6c8ebf;sketch=1;fontStyle=1;fontColor=#050505;" vertex="1" parent="1"><mxGeometry x="-81.5" y="22592" width="47" height="47" as="geometry"/></mxCell><mxCell id="511" style="edgeStyle=none;rounded=0;sketch=1;orthogonalLoop=1;jettySize=auto;html=1;entryX=0.5;entryY=0;entryDx=0;entryDy=0;strokeColor=#050505;fontColor=#050505;" edge="1" source="513" target="528" parent="1"><mxGeometry relative="1" as="geometry"/></mxCell><mxCell id="512" style="edgeStyle=none;rounded=0;sketch=1;orthogonalLoop=1;jettySize=auto;html=1;strokeColor=#050505;fontColor=#050505;" edge="1" source="513" target="527" parent="1"><mxGeometry relative="1" as="geometry"/></mxCell><mxCell id="513" value="&lt;font style=&quot;font-size: 17px&quot;&gt;52&lt;/font&gt;" style="ellipse;whiteSpace=wrap;html=1;aspect=fixed;fillColor=#dae8fc;strokeColor=#6c8ebf;sketch=1;fontColor=#000000;fontStyle=1" vertex="1" parent="1"><mxGeometry x="38" y="22670" width="47" height="47" as="geometry"/></mxCell><mxCell id="514" style="edgeStyle=none;rounded=0;sketch=1;orthogonalLoop=1;jettySize=auto;html=1;entryX=0.362;entryY=0.064;entryDx=0;entryDy=0;entryPerimeter=0;strokeColor=#050505;fontColor=#050505;" edge="1" source="516" target="530" parent="1"><mxGeometry relative="1" as="geometry"/></mxCell><mxCell id="515" style="edgeStyle=none;rounded=0;sketch=1;orthogonalLoop=1;jettySize=auto;html=1;strokeColor=#050505;fontColor=#050505;" edge="1" source="516" target="529" parent="1"><mxGeometry relative="1" as="geometry"/></mxCell><mxCell id="516" value="&lt;font style=&quot;font-size: 17px&quot;&gt;82&lt;/font&gt;" style="ellipse;whiteSpace=wrap;html=1;aspect=fixed;fillColor=#dae8fc;strokeColor=#6c8ebf;sketch=1;fontStyle=1;fontColor=#050505;" vertex="1" parent="1"><mxGeometry x="138.5" y="22672" width="47" height="47" as="geometry"/></mxCell><mxCell id="517" style="edgeStyle=none;rounded=0;sketch=1;orthogonalLoop=1;jettySize=auto;html=1;entryX=1;entryY=0;entryDx=0;entryDy=0;strokeColor=#050505;fontColor=#050505;" edge="1" source="519" target="525" parent="1"><mxGeometry relative="1" as="geometry"/></mxCell><mxCell id="518" style="edgeStyle=none;rounded=0;sketch=1;orthogonalLoop=1;jettySize=auto;html=1;entryX=0.5;entryY=0;entryDx=0;entryDy=0;strokeColor=#050505;fontColor=#050505;" edge="1" source="519" target="526" parent="1"><mxGeometry relative="1" as="geometry"/></mxCell><mxCell id="519" value="&lt;font style=&quot;font-size: 17px&quot;&gt;18&lt;/font&gt;" style="ellipse;whiteSpace=wrap;html=1;aspect=fixed;fillColor=#dae8fc;strokeColor=#6c8ebf;sketch=1;fontStyle=1;fontColor=#050505;" vertex="1" parent="1"><mxGeometry x="-155" y="22670" width="47" height="47" as="geometry"/></mxCell><mxCell id="520" style="edgeStyle=none;rounded=0;sketch=1;orthogonalLoop=1;jettySize=auto;html=1;entryX=0.5;entryY=0;entryDx=0;entryDy=0;strokeColor=#050505;fontColor=#050505;" edge="1" source="522" target="523" parent="1"><mxGeometry relative="1" as="geometry"/></mxCell><mxCell id="521" style="edgeStyle=none;rounded=0;sketch=1;orthogonalLoop=1;jettySize=auto;html=1;entryX=0.5;entryY=0;entryDx=0;entryDy=0;strokeColor=#050505;fontColor=#050505;" edge="1" source="522" target="524" parent="1"><mxGeometry relative="1" as="geometry"/></mxCell><mxCell id="522" value="&lt;font style=&quot;font-size: 17px&quot;&gt;27&lt;/font&gt;" style="ellipse;whiteSpace=wrap;html=1;aspect=fixed;fillColor=#dae8fc;strokeColor=#6c8ebf;sketch=1;fontStyle=1;fontColor=#050505;" vertex="1" parent="1"><mxGeometry x="-56.5" y="22670" width="47" height="47" as="geometry"/></mxCell><mxCell id="523" value="&lt;font style=&quot;font-size: 17px&quot;&gt;25&lt;/font&gt;" style="ellipse;whiteSpace=wrap;html=1;aspect=fixed;fillColor=#dae8fc;strokeColor=#6c8ebf;sketch=1;fontColor=#000000;fontStyle=1" vertex="1" parent="1"><mxGeometry x="-80" y="22746" width="47" height="47" as="geometry"/></mxCell><mxCell id="524" value="&lt;font style=&quot;font-size: 17px&quot;&gt;30&lt;/font&gt;" style="ellipse;whiteSpace=wrap;html=1;aspect=fixed;fillColor=#dae8fc;strokeColor=#6c8ebf;sketch=1;fontStyle=1;fontColor=#050505;" vertex="1" parent="1"><mxGeometry x="-29" y="22746" width="47" height="47" as="geometry"/></mxCell><mxCell id="525" value="&lt;font style=&quot;font-size: 17px&quot;&gt;12&lt;/font&gt;" style="ellipse;whiteSpace=wrap;html=1;aspect=fixed;fillColor=#dae8fc;strokeColor=#6c8ebf;sketch=1;fontStyle=1;fontColor=#050505;" vertex="1" parent="1"><mxGeometry x="-198" y="22746" width="47" height="47" as="geometry"/></mxCell><mxCell id="526" value="&lt;font style=&quot;font-size: 17px&quot;&gt;20&lt;/font&gt;" style="ellipse;whiteSpace=wrap;html=1;aspect=fixed;fillColor=#dae8fc;strokeColor=#6c8ebf;sketch=1;fontStyle=1;fontColor=#050505;" vertex="1" parent="1"><mxGeometry x="-134" y="22746" width="47" height="47" as="geometry"/></mxCell><mxCell id="527" value="&lt;font style=&quot;font-size: 17px&quot;&gt;63&lt;/font&gt;" style="ellipse;whiteSpace=wrap;html=1;aspect=fixed;fillColor=#dae8fc;strokeColor=#6c8ebf;sketch=1;fontStyle=1;fontColor=#050505;" vertex="1" parent="1"><mxGeometry x="72" y="22748" width="47" height="47" as="geometry"/></mxCell><mxCell id="528" value="&lt;font style=&quot;font-size: 17px&quot;&gt;49&lt;/font&gt;" style="ellipse;whiteSpace=wrap;html=1;aspect=fixed;fillColor=#dae8fc;strokeColor=#6c8ebf;sketch=1;fontColor=#000000;fontStyle=1" vertex="1" parent="1"><mxGeometry x="21" y="22748" width="47" height="47" as="geometry"/></mxCell><mxCell id="529" value="&lt;font style=&quot;font-size: 17px&quot;&gt;91&lt;/font&gt;" style="ellipse;whiteSpace=wrap;html=1;aspect=fixed;fillColor=#dae8fc;strokeColor=#6c8ebf;sketch=1;fontStyle=1;fontColor=#050505;" vertex="1" parent="1"><mxGeometry x="175" y="22748" width="47" height="47" as="geometry"/></mxCell><mxCell id="530" value="&lt;font style=&quot;font-size: 17px&quot;&gt;78&lt;/font&gt;" style="ellipse;whiteSpace=wrap;html=1;aspect=fixed;fillColor=#dae8fc;strokeColor=#6c8ebf;sketch=1;fontColor=#000000;fontStyle=1" vertex="1" parent="1"><mxGeometry x="124" y="22748" width="47" height="47" as="geometry"/></mxCell><mxCell id="534" style="edgeStyle=none;rounded=0;sketch=1;orthogonalLoop=1;jettySize=auto;html=1;strokeColor=#050505;fontSize=16;fontColor=#050505;strokeWidth=2;endArrow=blockThin;endFill=1;" edge="1" parent="1" source="531"><mxGeometry relative="1" as="geometry"><mxPoint x="-13" y="22538" as="targetPoint"/></mxGeometry></mxCell><mxCell id="531" value="root" style="text;html=1;align=center;verticalAlign=middle;resizable=0;points=[];autosize=1;fontSize=16;fillColor=#dae8fc;strokeColor=#6c8ebf;fontStyle=1;fontColor=#050505;sketch=1;" vertex="1" parent="1"><mxGeometry x="-89" y="22526" width="41" height="23" as="geometry"/></mxCell><mxCell id="537" style="edgeStyle=none;rounded=0;sketch=1;orthogonalLoop=1;jettySize=auto;html=1;strokeColor=#050505;fontColor=#050505;entryX=0;entryY=0;entryDx=0;entryDy=0;" edge="1" source="539" target="542" parent="1"><mxGeometry relative="1" as="geometry"><mxPoint x="29.143488784965484" y="22950.339810738013" as="targetPoint"/></mxGeometry></mxCell><mxCell id="538" style="edgeStyle=none;rounded=0;sketch=1;orthogonalLoop=1;jettySize=auto;html=1;entryX=1;entryY=0;entryDx=0;entryDy=0;strokeColor=#050505;fontColor=#050505;" edge="1" source="539" target="545" parent="1"><mxGeometry relative="1" as="geometry"/></mxCell><mxCell id="539" value="&lt;font style=&quot;font-size: 17px&quot;&gt;47&lt;/font&gt;" style="ellipse;whiteSpace=wrap;html=1;aspect=fixed;fillColor=#ffe6cc;strokeColor=#d79b00;sketch=1;fontStyle=1;fontColor=#050505;" vertex="1" parent="1"><mxGeometry x="-14.25" y="22863" width="47" height="47" as="geometry"/></mxCell><mxCell id="540" style="edgeStyle=none;rounded=0;sketch=1;orthogonalLoop=1;jettySize=auto;html=1;entryX=1;entryY=0;entryDx=0;entryDy=0;strokeColor=#050505;fontColor=#050505;" edge="1" source="542" target="546" parent="1"><mxGeometry relative="1" as="geometry"><mxPoint x="5.3670093578838305" y="23027.882990642116" as="targetPoint"/></mxGeometry></mxCell><mxCell id="541" style="edgeStyle=none;rounded=0;sketch=1;orthogonalLoop=1;jettySize=auto;html=1;entryX=0;entryY=0;entryDx=0;entryDy=0;strokeColor=#050505;fontColor=#050505;" edge="1" source="542" target="547" parent="1"><mxGeometry relative="1" as="geometry"/></mxCell><mxCell id="542" value="&lt;font style=&quot;font-size: 17px&quot;&gt;76&lt;/font&gt;" style="ellipse;whiteSpace=wrap;html=1;aspect=fixed;fillColor=#dae8fc;strokeColor=#6c8ebf;sketch=1;fontColor=#000000;fontStyle=1" vertex="1" parent="1"><mxGeometry x="59.75" y="22941" width="47" height="47" as="geometry"/></mxCell><mxCell id="543" style="edgeStyle=none;rounded=0;sketch=1;orthogonalLoop=1;jettySize=auto;html=1;entryX=1;entryY=0;entryDx=0;entryDy=0;strokeColor=#050505;fontColor=#050505;" edge="1" source="545" target="548" parent="1"><mxGeometry relative="1" as="geometry"/></mxCell><mxCell id="544" style="edgeStyle=none;rounded=0;sketch=1;orthogonalLoop=1;jettySize=auto;html=1;entryX=0;entryY=0;entryDx=0;entryDy=0;strokeColor=#050505;fontColor=#050505;" edge="1" source="545" target="549" parent="1"><mxGeometry relative="1" as="geometry"/></mxCell><mxCell id="545" value="&lt;font style=&quot;font-size: 17px&quot;&gt;21&lt;/font&gt;" style="ellipse;whiteSpace=wrap;html=1;aspect=fixed;fillColor=#dae8fc;strokeColor=#6c8ebf;sketch=1;fontStyle=1;fontColor=#050505;" vertex="1" parent="1"><mxGeometry x="-91.75" y="22941" width="47" height="47" as="geometry"/></mxCell><mxCell id="546" value="&lt;font style=&quot;font-size: 17px&quot;&gt;52&lt;/font&gt;" style="ellipse;whiteSpace=wrap;html=1;aspect=fixed;fillColor=#dae8fc;strokeColor=#6c8ebf;sketch=1;fontColor=#000000;fontStyle=1" vertex="1" parent="1"><mxGeometry x="27.75" y="23019" width="47" height="47" as="geometry"/></mxCell><mxCell id="547" value="&lt;font style=&quot;font-size: 17px&quot;&gt;82&lt;/font&gt;" style="ellipse;whiteSpace=wrap;html=1;aspect=fixed;fillColor=#dae8fc;strokeColor=#6c8ebf;sketch=1;fontStyle=1;fontColor=#050505;" vertex="1" parent="1"><mxGeometry x="128.25" y="23021" width="47" height="47" as="geometry"/></mxCell><mxCell id="548" value="&lt;font style=&quot;font-size: 17px&quot;&gt;18&lt;/font&gt;" style="ellipse;whiteSpace=wrap;html=1;aspect=fixed;fillColor=#dae8fc;strokeColor=#6c8ebf;sketch=1;fontStyle=1;fontColor=#050505;" vertex="1" parent="1"><mxGeometry x="-165.25" y="23019" width="47" height="47" as="geometry"/></mxCell><mxCell id="549" value="&lt;font style=&quot;font-size: 17px&quot;&gt;27&lt;/font&gt;" style="ellipse;whiteSpace=wrap;html=1;aspect=fixed;fillColor=#dae8fc;strokeColor=#6c8ebf;sketch=1;fontStyle=1;fontColor=#050505;" vertex="1" parent="1"><mxGeometry x="-66.75" y="23019" width="47" height="47" as="geometry"/></mxCell><mxCell id="550" style="edgeStyle=none;rounded=0;sketch=1;orthogonalLoop=1;jettySize=auto;html=1;strokeColor=#050505;fontSize=16;fontColor=#050505;strokeWidth=2;endArrow=blockThin;endFill=1;" edge="1" source="551" parent="1"><mxGeometry relative="1" as="geometry"><mxPoint x="-23.25" y="22887" as="targetPoint"/></mxGeometry></mxCell><mxCell id="551" value="root" style="text;html=1;align=center;verticalAlign=middle;resizable=0;points=[];autosize=1;fontSize=16;fillColor=#dae8fc;strokeColor=#6c8ebf;fontStyle=1;fontColor=#050505;sketch=1;" vertex="1" parent="1"><mxGeometry x="-99.25" y="22875" width="41" height="23" as="geometry"/></mxCell><mxCell id="552" value="" style="shape=flexArrow;endArrow=classic;html=1;strokeColor=#d79b00;strokeWidth=1;fontSize=16;fontColor=#050505;fillColor=#ffe6cc;sketch=1;" edge="1" parent="1"><mxGeometry width="50" height="50" relative="1" as="geometry"><mxPoint x="109" y="22882" as="sourcePoint"/><mxPoint x="56" y="22882" as="targetPoint"/></mxGeometry></mxCell><mxCell id="553" style="edgeStyle=none;rounded=0;sketch=1;orthogonalLoop=1;jettySize=auto;html=1;strokeColor=#050505;fontColor=#050505;entryX=0;entryY=0;entryDx=0;entryDy=0;" edge="1" source="555" target="558" parent="1"><mxGeometry relative="1" as="geometry"><mxPoint x="18.643488784965484" y="23186.339810738013" as="targetPoint"/></mxGeometry></mxCell><mxCell id="554" style="edgeStyle=none;rounded=0;sketch=1;orthogonalLoop=1;jettySize=auto;html=1;entryX=1;entryY=0;entryDx=0;entryDy=0;strokeColor=#050505;fontColor=#050505;" edge="1" source="555" target="561" parent="1"><mxGeometry relative="1" as="geometry"/></mxCell><mxCell id="555" value="&lt;font style=&quot;font-size: 17px&quot;&gt;47&lt;/font&gt;" style="ellipse;whiteSpace=wrap;html=1;aspect=fixed;fillColor=#dae8fc;strokeColor=#6c8ebf;sketch=1;fontStyle=1;fontColor=#050505;" vertex="1" parent="1"><mxGeometry x="-24.75" y="23099" width="47" height="47" as="geometry"/></mxCell><mxCell id="556" style="edgeStyle=none;rounded=0;sketch=1;orthogonalLoop=1;jettySize=auto;html=1;entryX=1;entryY=0;entryDx=0;entryDy=0;strokeColor=#050505;fontColor=#050505;" edge="1" source="558" target="562" parent="1"><mxGeometry relative="1" as="geometry"><mxPoint x="-5.1329906421161695" y="23263.882990642116" as="targetPoint"/></mxGeometry></mxCell><mxCell id="557" style="edgeStyle=none;rounded=0;sketch=1;orthogonalLoop=1;jettySize=auto;html=1;entryX=0;entryY=0;entryDx=0;entryDy=0;strokeColor=#050505;fontColor=#050505;" edge="1" source="558" target="563" parent="1"><mxGeometry relative="1" as="geometry"/></mxCell><mxCell id="558" value="&lt;font style=&quot;font-size: 17px&quot;&gt;76&lt;/font&gt;" style="ellipse;whiteSpace=wrap;html=1;aspect=fixed;fillColor=#dae8fc;strokeColor=#6c8ebf;sketch=1;fontColor=#000000;fontStyle=1" vertex="1" parent="1"><mxGeometry x="49.25" y="23177" width="47" height="47" as="geometry"/></mxCell><mxCell id="559" style="edgeStyle=none;rounded=0;sketch=1;orthogonalLoop=1;jettySize=auto;html=1;entryX=1;entryY=0;entryDx=0;entryDy=0;strokeColor=#050505;fontColor=#050505;" edge="1" source="561" target="564" parent="1"><mxGeometry relative="1" as="geometry"/></mxCell><mxCell id="560" style="edgeStyle=none;rounded=0;sketch=1;orthogonalLoop=1;jettySize=auto;html=1;entryX=0;entryY=0;entryDx=0;entryDy=0;strokeColor=#050505;fontColor=#050505;" edge="1" source="561" target="565" parent="1"><mxGeometry relative="1" as="geometry"/></mxCell><mxCell id="561" value="&lt;font style=&quot;font-size: 17px&quot;&gt;21&lt;/font&gt;" style="ellipse;whiteSpace=wrap;html=1;aspect=fixed;fillColor=#ffe6cc;strokeColor=#d79b00;sketch=1;fontStyle=1;fontColor=#050505;" vertex="1" parent="1"><mxGeometry x="-102.25" y="23177" width="47" height="47" as="geometry"/></mxCell><mxCell id="562" value="&lt;font style=&quot;font-size: 17px&quot;&gt;52&lt;/font&gt;" style="ellipse;whiteSpace=wrap;html=1;aspect=fixed;fillColor=#dae8fc;strokeColor=#6c8ebf;sketch=1;fontColor=#000000;fontStyle=1" vertex="1" parent="1"><mxGeometry x="17.25" y="23255" width="47" height="47" as="geometry"/></mxCell><mxCell id="563" value="&lt;font style=&quot;font-size: 17px&quot;&gt;82&lt;/font&gt;" style="ellipse;whiteSpace=wrap;html=1;aspect=fixed;fillColor=#dae8fc;strokeColor=#6c8ebf;sketch=1;fontStyle=1;fontColor=#050505;" vertex="1" parent="1"><mxGeometry x="117.75" y="23257" width="47" height="47" as="geometry"/></mxCell><mxCell id="564" value="&lt;font style=&quot;font-size: 17px&quot;&gt;18&lt;/font&gt;" style="ellipse;whiteSpace=wrap;html=1;aspect=fixed;fillColor=#dae8fc;strokeColor=#6c8ebf;sketch=1;fontStyle=1;fontColor=#050505;" vertex="1" parent="1"><mxGeometry x="-175.75" y="23255" width="47" height="47" as="geometry"/></mxCell><mxCell id="565" value="&lt;font style=&quot;font-size: 17px&quot;&gt;27&lt;/font&gt;" style="ellipse;whiteSpace=wrap;html=1;aspect=fixed;fillColor=#dae8fc;strokeColor=#6c8ebf;sketch=1;fontStyle=1;fontColor=#050505;" vertex="1" parent="1"><mxGeometry x="-77.25" y="23255" width="47" height="47" as="geometry"/></mxCell><mxCell id="566" style="edgeStyle=none;rounded=0;sketch=1;orthogonalLoop=1;jettySize=auto;html=1;strokeColor=#050505;fontSize=16;fontColor=#050505;strokeWidth=2;endArrow=blockThin;endFill=1;" edge="1" source="567" parent="1"><mxGeometry relative="1" as="geometry"><mxPoint x="-33.75" y="23123" as="targetPoint"/></mxGeometry></mxCell><mxCell id="567" value="root" style="text;html=1;align=center;verticalAlign=middle;resizable=0;points=[];autosize=1;fontSize=16;fillColor=#dae8fc;strokeColor=#6c8ebf;fontStyle=1;fontColor=#050505;sketch=1;" vertex="1" parent="1"><mxGeometry x="-109.75" y="23111" width="41" height="23" as="geometry"/></mxCell><mxCell id="568" value="" style="shape=flexArrow;endArrow=classic;html=1;strokeColor=#d79b00;strokeWidth=1;fontSize=16;fontColor=#050505;fillColor=#ffe6cc;sketch=1;" edge="1" parent="1"><mxGeometry width="50" height="50" relative="1" as="geometry"><mxPoint x="-170.75" y="23200" as="sourcePoint"/><mxPoint x="-121.75" y="23200" as="targetPoint"/></mxGeometry></mxCell><mxCell id="569" value="Steps for insert()" style="text;html=1;align=center;verticalAlign=middle;resizable=0;points=[];autosize=1;fontColor=#050505;fontSize=16;" vertex="1" parent="1"><mxGeometry x="-214.5" y="22829" width="125" height="23" as="geometry"/></mxCell></root></mxGraphModel></diagram></mxfile>